  <svg
      width="14"
      height="12"
      viewBox="0 0 14 12"
      fill="none"
      xmlns="http://www.w3.org/2000/svg"
    >
      <path
        d="M0 9.37032V4.31528H14V9.37032C14 10.0073 13.8459 10.4841 13.5376 10.8005C13.2294 11.1211 12.7999 11.2814 12.2492 11.2814H1.93571C1.29047 11.2814 0.805519 11.1211 0.480845 10.8005C0.160282 10.4841 0 10.0073 0 9.37032ZM0 3.50771V1.85557C0 1.23499 0.147952 0.770586 0.443857 0.462351C0.739762 0.154117 1.15896 0 1.70145 0H3.45839C3.65977 0 3.83443 0.0143843 3.98239 0.0431528C4.13445 0.0719213 4.27213 0.119184 4.39542 0.184941C4.52282 0.250697 4.65434 0.341113 4.78996 0.456187L5.16601 0.764421C5.32218 0.895934 5.47219 0.990459 5.61603 1.048C5.75987 1.10142 5.93659 1.12814 6.14619 1.12814H12.0643C12.7054 1.12814 13.1883 1.28842 13.513 1.60898C13.8377 1.92955 14 2.40628 14 3.03919V3.50771H0Z"
        fill="#929292"
      />
    </svg>