<svg width="16" height="16" viewBox="0 0 16 16" fill="none" xmlns="http://www.w3.org/2000/svg">
<g clip-path="url(#clip0_8547_4135)">
<rect width="16" height="16" rx="4" fill="#6A6AF4"/>
<rect width="16" height="16" rx="4" fill="black" fill-opacity="0.1"/>
<rect x="0.5" y="0.5" width="15" height="15" rx="3.5" stroke="white" stroke-opacity="0.2"/>
<path d="M7.99989 8.00001C7.511 8.00001 7.09248 7.82594 6.74434 7.47779C6.39619 7.12964 6.22211 6.71112 6.22211 6.22224C6.22211 5.73335 6.39619 5.31483 6.74434 4.96668C7.09248 4.61853 7.511 4.44446 7.99989 4.44446C8.48878 4.44446 8.9073 4.61853 9.25545 4.96668C9.6036 5.31483 9.77767 5.73335 9.77767 6.22224C9.77767 6.71112 9.6036 7.12964 9.25545 7.47779C8.9073 7.82594 8.48878 8.00001 7.99989 8.00001ZM4.44434 11.5556V10.3111C4.44434 10.0593 4.50915 9.82779 4.63878 9.61668C4.76841 9.40557 4.94063 9.24446 5.15545 9.13335C5.61471 8.90372 6.08137 8.7315 6.55545 8.61668C7.02952 8.50187 7.511 8.44446 7.99989 8.44446C8.48878 8.44446 8.97026 8.50187 9.44434 8.61668C9.91841 8.7315 10.3851 8.90372 10.8443 9.13335C11.0592 9.24446 11.2314 9.40557 11.361 9.61668C11.4906 9.82779 11.5554 10.0593 11.5554 10.3111V11.5556H4.44434Z" fill="white" fill-opacity="0.9"/>
</g>
<defs>
<clipPath id="clip0_8547_4135">
<rect width="16" height="16" fill="white"/>
</clipPath>
</defs>
</svg>
