<svg width="72" height="72" viewBox="0 0 72 72" fill="none" xmlns="http://www.w3.org/2000/svg">
<g filter="url(#filter0_d_8269_7235)">
<rect x="4" width="64" height="64" rx="12" fill="#6A6AF4"/>
<rect x="4" width="64" height="64" rx="12" fill="black" fill-opacity="0.1"/>
<rect x="4.5" y="0.5" width="63" height="63" rx="11.5" stroke="white" stroke-opacity="0.2"/>
<g opacity="0.95">
<path d="M20 40V37.9C20 36.9444 20.4889 36.1667 21.4667 35.5667C22.4444 34.9667 23.7333 34.6667 25.3333 34.6667C25.6222 34.6667 25.9 34.6722 26.1667 34.6833C26.4333 34.6944 26.6889 34.7222 26.9333 34.7667C26.6222 35.2333 26.3889 35.7222 26.2333 36.2333C26.0778 36.7444 26 37.2778 26 37.8333V40H20ZM28 40V37.8333C28 37.1222 28.1944 36.4722 28.5833 35.8833C28.9722 35.2944 29.5222 34.7778 30.2333 34.3333C30.9444 33.8889 31.7944 33.5556 32.7833 33.3333C33.7722 33.1111 34.8444 33 36 33C37.1778 33 38.2611 33.1111 39.25 33.3333C40.2389 33.5556 41.0889 33.8889 41.8 34.3333C42.5111 34.7778 43.0556 35.2944 43.4333 35.8833C43.8111 36.4722 44 37.1222 44 37.8333V40H28ZM46 40V37.8333C46 37.2556 45.9278 36.7111 45.7833 36.2C45.6389 35.6889 45.4222 35.2111 45.1333 34.7667C45.3778 34.7222 45.6278 34.6944 45.8833 34.6833C46.1389 34.6722 46.4 34.6667 46.6667 34.6667C48.2667 34.6667 49.5556 34.9611 50.5333 35.55C51.5111 36.1389 52 36.9222 52 37.9V40H46ZM25.3333 33.3333C24.6 33.3333 23.9722 33.0722 23.45 32.55C22.9278 32.0278 22.6667 31.4 22.6667 30.6667C22.6667 29.9111 22.9278 29.2778 23.45 28.7667C23.9722 28.2556 24.6 28 25.3333 28C26.0889 28 26.7222 28.2556 27.2333 28.7667C27.7444 29.2778 28 29.9111 28 30.6667C28 31.4 27.7444 32.0278 27.2333 32.55C26.7222 33.0722 26.0889 33.3333 25.3333 33.3333ZM46.6667 33.3333C45.9333 33.3333 45.3056 33.0722 44.7833 32.55C44.2611 32.0278 44 31.4 44 30.6667C44 29.9111 44.2611 29.2778 44.7833 28.7667C45.3056 28.2556 45.9333 28 46.6667 28C47.4222 28 48.0556 28.2556 48.5667 28.7667C49.0778 29.2778 49.3333 29.9111 49.3333 30.6667C49.3333 31.4 49.0778 32.0278 48.5667 32.55C48.0556 33.0722 47.4222 33.3333 46.6667 33.3333ZM36 32C34.8889 32 33.9444 31.6111 33.1667 30.8333C32.3889 30.0556 32 29.1111 32 28C32 26.8667 32.3889 25.9167 33.1667 25.15C33.9444 24.3833 34.8889 24 36 24C37.1333 24 38.0833 24.3833 38.85 25.15C39.6167 25.9167 40 26.8667 40 28C40 29.1111 39.6167 30.0556 38.85 30.8333C38.0833 31.6111 37.1333 32 36 32Z" fill="white"/>
</g>
</g>
<defs>
<filter id="filter0_d_8269_7235" x="0.0563381" y="0" width="71.8873" height="71.8873" filterUnits="userSpaceOnUse" color-interpolation-filters="sRGB">
<feFlood flood-opacity="0" result="BackgroundImageFix"/>
<feColorMatrix in="SourceAlpha" type="matrix" values="0 0 0 0 0 0 0 0 0 0 0 0 0 0 0 0 0 0 127 0" result="hardAlpha"/>
<feOffset dy="3.94366"/>
<feGaussianBlur stdDeviation="1.97183"/>
<feComposite in2="hardAlpha" operator="out"/>
<feColorMatrix type="matrix" values="0 0 0 0 0 0 0 0 0 0 0 0 0 0 0 0 0 0 0.04 0"/>
<feBlend mode="normal" in2="BackgroundImageFix" result="effect1_dropShadow_8269_7235"/>
<feBlend mode="normal" in="SourceGraphic" in2="effect1_dropShadow_8269_7235" result="shape"/>
</filter>
</defs>
</svg>
