<svg width="17" height="16" viewBox="0 0 17 16" fill="none" xmlns="http://www.w3.org/2000/svg">
<rect x="0.5" width="16" height="16" rx="4" fill="#929292"/>
<path d="M4.62859 12.125C4.17467 12.125 3.86361 11.9951 3.69541 11.7352C3.52643 11.4785 3.50398 11.0998 3.62806 10.5989L4.49754 7.08892C4.60415 6.65857 5.04998 6.30971 5.49334 6.30971H13.5211C13.9644 6.30971 14.2374 6.65858 14.1308 7.08893L13.2613 10.5989C13.1372 11.0998 12.9313 11.4785 12.6436 11.7352C12.3551 11.9951 12.0105 12.125 11.6098 12.125H4.62859Z" fill="white"/>
<path d="M12.8787 5.64735H5.65739C4.83718 5.64735 4.01239 6.29276 3.81516 7.0889L3.25 9.37038V4.94331C3.25 4.46673 3.35928 4.10779 3.57783 3.86648C3.79919 3.62216 4.10601 3.5 4.49829 3.5H5.68774C5.83344 3.5 5.95953 3.51056 6.06601 3.53167C6.17248 3.55279 6.27055 3.58898 6.36022 3.64026C6.44988 3.68852 6.54375 3.75639 6.64182 3.84386L6.88139 4.05651C6.99907 4.15605 7.10975 4.22693 7.21342 4.26916C7.3171 4.31139 7.44459 4.3325 7.5959 4.3325H11.5047C11.9558 4.3325 12.2976 4.45768 12.5302 4.70803C12.7388 4.92992 12.855 5.24303 12.8787 5.64735Z" fill="white"/>
</svg>
