<svg width="17" height="16" viewBox="0 0 17 16" fill="none" xmlns="http://www.w3.org/2000/svg">
<rect x="0.5" width="16" height="16" rx="4" fill="#929292"/>
<path d="M2.2561 10.5V5.36089H3.95201C5.08261 5.36089 5.77272 5.94087 5.77272 6.89528C5.77272 7.84234 5.08261 8.42233 3.95201 8.42233H3.29861V10.5H2.2561ZM3.99606 6.22719H3.29861V7.55602H3.99606C4.43655 7.55602 4.70085 7.29906 4.70085 6.88059C4.70085 6.49149 4.43655 6.22719 3.99606 6.22719Z" fill="white"/>
<path d="M6.48812 10.5V5.36089H8.50706C10.1369 5.36089 11.2381 6.54288 11.2381 7.93044C11.2381 9.318 10.1369 10.5 8.50706 10.5H6.48812ZM8.52174 6.30795H7.53063V9.55293H8.52174C9.47615 9.55293 10.1663 8.8408 10.1663 7.93044C10.1663 7.01274 9.47615 6.30795 8.52174 6.30795Z" fill="white"/>
<path d="M12.0967 10.5V5.36089H15.0921V6.22719H13.1392V7.44589H14.7984V8.3122H13.1392V10.5H12.0967Z" fill="white"/>
</svg>
