<svg width="17" height="16" viewBox="0 0 17 16" fill="none" xmlns="http://www.w3.org/2000/svg">
<rect x="0.5" width="16" height="16" rx="4" fill="#929292"/>
<path d="M4.5 4.00002L5.5 6.00002H7L6 4.00002H7L8 6.00002H9.5L8.5 4.00002H9.5L10.5 6.00002H12L11 4.00002H12.5C12.775 4.00002 13.0104 4.09793 13.2063 4.29377C13.4021 4.4896 13.5 4.72502 13.5 5.00002V11C13.5 11.275 13.4021 11.5104 13.2063 11.7063C13.0104 11.9021 12.775 12 12.5 12H4.5C4.225 12 3.98958 11.9021 3.79375 11.7063C3.59792 11.5104 3.5 11.275 3.5 11V5.00002C3.5 4.72502 3.59792 4.4896 3.79375 4.29377C3.98958 4.09793 4.225 4.00002 4.5 4.00002Z" fill="white"/>
</svg>
