<svg width="32" height="32" viewBox="0 0 35 37" fill="none" xmlns="http://www.w3.org/2000/svg">
<g filter="url(#filter0_d_2456_1496)">
<g clip-path="url(#clip0_2456_1496)">
<rect x="6.5" y="0.5" width="24" height="32" rx="3.55556" fill="white"/>
<path fill-rule="evenodd" clip-rule="evenodd" d="M10.084 7.7623C10.084 7.27138 10.482 6.87341 10.9729 6.87341H18.9729C19.4638 6.87341 19.8618 7.27138 19.8618 7.7623C19.8618 8.25322 19.4638 8.65118 18.9729 8.65118H10.9729C10.482 8.65118 10.084 8.25322 10.084 7.7623Z" fill="#6A6AF4"/>
<path fill-rule="evenodd" clip-rule="evenodd" d="M10.084 10.7685C10.084 10.2776 10.482 9.87964 10.9729 9.87964H26.0276C26.5185 9.87964 26.9165 10.2776 26.9165 10.7685C26.9165 11.2594 26.5185 11.6574 26.0276 11.6574H10.9729C10.482 11.6574 10.084 11.2594 10.084 10.7685ZM10.084 13.4352C10.084 12.9443 10.482 12.5463 10.9729 12.5463H26.0276C26.5185 12.5463 26.9165 12.9443 26.9165 13.4352C26.9165 13.9261 26.5185 14.3241 26.0276 14.3241H10.9729C10.482 14.3241 10.084 13.9261 10.084 13.4352ZM10.084 16.1019C10.084 15.6109 10.482 15.213 10.9729 15.213H26.0276C26.5185 15.213 26.9165 15.6109 26.9165 16.1019C26.9165 16.5928 26.5185 16.9907 26.0276 16.9907H10.9729C10.482 16.9907 10.084 16.5928 10.084 16.1019ZM10.084 18.7685C10.084 18.2776 10.482 17.8796 10.9729 17.8796H26.0276C26.5185 17.8796 26.9165 18.2776 26.9165 18.7685C26.9165 19.2594 26.5185 19.6574 26.0276 19.6574H10.9729C10.482 19.6574 10.084 19.2594 10.084 18.7685Z" fill="#CACAFB"/>
<path fill-rule="evenodd" clip-rule="evenodd" d="M10.084 21.4666C10.084 20.9757 10.482 20.5777 10.9729 20.5777H26.0276C26.5185 20.5777 26.9165 20.9757 26.9165 21.4666C26.9165 21.9575 26.5185 22.3555 26.0276 22.3555H10.9729C10.482 22.3555 10.084 21.9575 10.084 21.4666ZM10.084 24.1333C10.084 23.6424 10.482 23.2444 10.9729 23.2444H26.0276C26.5185 23.2444 26.9165 23.6424 26.9165 24.1333C26.9165 24.6242 26.5185 25.0222 26.0276 25.0222H10.9729C10.482 25.0222 10.084 24.6242 10.084 24.1333ZM10.084 26.8C10.084 26.309 10.482 25.9111 10.9729 25.9111H26.0276C26.5185 25.9111 26.9165 26.309 26.9165 26.8C26.9165 27.2909 26.5185 27.6888 26.0276 27.6888H10.9729C10.482 27.6888 10.084 27.2909 10.084 26.8ZM10.084 29.4666C10.084 28.9757 10.482 28.5777 10.9729 28.5777H26.0276C26.5185 28.5777 26.9165 28.9757 26.9165 29.4666C26.9165 29.9575 26.5185 30.3555 26.0276 30.3555H10.9729C10.482 30.3555 10.084 29.9575 10.084 29.4666Z" fill="#CACAFB"/>
<rect x="6.57422" y="0.5" width="23.9258" height="31.8206" fill="url(#paint0_linear_2456_1496)" fill-opacity="0.4"/>
</g>
<rect x="6.85" y="0.85" width="23.3" height="31.3" rx="3.20556" stroke="#CACAFB" stroke-width="0.7"/>
<rect x="6.85" y="0.85" width="23.3" height="31.3" rx="3.20556" stroke="url(#paint1_linear_2456_1496)" stroke-opacity="0.23" stroke-width="0.7"/>
<g filter="url(#filter1_d_2456_1496)">
<rect x="2.5" y="16.5" width="16" height="16" rx="4" fill="#6A6AF4"/>
<path d="M12.6114 29.3117C13.0494 29.1889 13.4687 28.9648 13.7439 28.5688C14.0156 28.1811 14.0921 27.6892 14.0921 27.2159V20.2816C14.0921 20.1588 14.0854 20.0358 14.0706 19.9143C14.2881 19.9999 14.4557 20.1412 14.5735 20.3384C14.7124 20.5626 14.7819 20.8578 14.7819 21.2241V28.2674C14.7819 28.7632 14.6603 29.1342 14.4172 29.3805C14.174 29.6268 13.8077 29.7499 13.3183 29.7499H10.6578C10.7209 29.7389 10.784 29.7275 10.8473 29.7159C11.4025 29.6167 11.9892 29.482 12.607 29.313L12.6114 29.3117Z" fill="white"/>
<path fill-rule="evenodd" clip-rule="evenodd" d="M6.21826 28.1206V21.0679C6.21826 20.6384 6.33352 20.3132 6.56403 20.0922C6.7977 19.8711 7.10716 19.7495 7.4924 19.7274C8.06078 19.6927 8.59917 19.6453 9.10756 19.5853C9.61595 19.5222 10.1022 19.4496 10.5664 19.3675C11.0338 19.2854 11.4885 19.1938 11.9306 19.0927C12.3853 18.9854 12.7342 19.0391 12.9773 19.2538C13.2205 19.4685 13.342 19.8111 13.342 20.2816V27.2159C13.342 27.6296 13.271 27.9375 13.1289 28.1396C12.9868 28.3448 12.7468 28.4948 12.4089 28.5895C11.809 28.7537 11.2438 28.8832 10.7133 28.9779C10.1828 29.0758 9.6649 29.15 9.15966 29.2006C8.65443 29.2511 8.13657 29.2906 7.60607 29.319C7.16715 29.3442 6.82612 29.2527 6.58298 29.0443C6.33983 28.839 6.21826 28.5311 6.21826 28.1206ZM7.95324 22.3484C8.6488 22.3041 9.28618 22.2361 9.86533 22.1444C10.0058 22.1215 10.1461 22.0976 10.2859 22.0728C10.4322 22.0469 10.538 21.9195 10.538 21.7713C10.538 21.5793 10.3643 21.4348 10.1756 21.467C10.0673 21.4854 9.95833 21.5034 9.84882 21.5209C9.27548 21.6122 8.64195 21.68 7.94821 21.7241C7.84432 21.7308 7.76166 21.7632 7.70853 21.8277C7.65829 21.8887 7.63367 21.9621 7.63367 22.0458C7.63367 22.1308 7.66236 22.2048 7.71963 22.2657L7.72044 22.2665C7.78251 22.3285 7.86138 22.3554 7.95324 22.3484ZM7.95301 23.921C8.64866 23.8767 9.28612 23.8087 9.86533 23.7169C10.447 23.6221 11.0226 23.5114 11.5917 23.385C11.7072 23.3593 11.7937 23.3189 11.837 23.2561C11.8795 23.1958 11.9005 23.1266 11.9005 23.0499C11.9005 22.9635 11.8676 22.889 11.8035 22.8285C11.7345 22.7633 11.6381 22.7481 11.5239 22.7716L11.5232 22.7718C10.9809 22.8948 10.4228 23.002 9.84882 23.0934C9.27548 23.1848 8.64195 23.2526 7.94821 23.2967C7.84432 23.3034 7.76166 23.3358 7.70853 23.4003C7.65853 23.461 7.63367 23.5327 7.63367 23.6136C7.63367 23.7014 7.66203 23.7771 7.71959 23.8383L7.72125 23.8398C7.78312 23.8981 7.86118 23.9246 7.95207 23.9211L7.95301 23.921ZM7.95317 25.4935C8.64877 25.4461 9.28616 25.3765 9.86529 25.2848C10.4471 25.1931 11.0225 25.084 11.5917 24.9575C11.7075 24.9318 11.794 24.8897 11.8372 24.8235C11.8794 24.7636 11.9005 24.6962 11.9005 24.6225C11.9005 24.536 11.8676 24.4615 11.8035 24.401C11.7345 24.3359 11.6381 24.3207 11.5239 24.3442L11.5234 24.3443C10.981 24.4641 10.4228 24.5698 9.84882 24.6612C9.27543 24.7526 8.64188 24.822 7.94811 24.8693C7.84426 24.876 7.76164 24.9083 7.70853 24.9728C7.65853 25.0335 7.63367 25.1052 7.63367 25.1861C7.63367 25.2739 7.66203 25.3497 7.71959 25.4108L7.72125 25.4124C7.78312 25.4706 7.86118 25.4971 7.95207 25.4936L7.95317 25.4935ZM9.86533 26.8464C9.28619 26.9382 8.64881 27.0062 7.95325 27.0504C7.86139 27.0574 7.78251 27.0306 7.72044 26.9685L7.71964 26.9677C7.66237 26.9068 7.63367 26.8328 7.63367 26.7478C7.63367 26.6641 7.65829 26.5908 7.70853 26.5297C7.76166 26.4652 7.84435 26.4329 7.94824 26.4262C8.64198 26.382 9.27548 26.3142 9.84882 26.2229C9.95833 26.2054 10.0673 26.1875 10.1756 26.169C10.3643 26.1368 10.538 26.2813 10.538 26.4733C10.538 26.6215 10.4322 26.749 10.2859 26.7749C10.1461 26.7996 10.0058 26.8235 9.86533 26.8464Z" fill="white"/>
</g>
</g>
<defs>
<filter id="filter0_d_2456_1496" x="0.5" y="0.5" width="36" height="36" filterUnits="userSpaceOnUse" color-interpolation-filters="sRGB">
<feFlood flood-opacity="0" result="BackgroundImageFix"/>
<feColorMatrix in="SourceAlpha" type="matrix" values="0 0 0 0 0 0 0 0 0 0 0 0 0 0 0 0 0 0 127 0" result="hardAlpha"/>
<feOffset dy="2"/>
<feGaussianBlur stdDeviation="1"/>
<feComposite in2="hardAlpha" operator="out"/>
<feColorMatrix type="matrix" values="0 0 0 0 0 0 0 0 0 0 0 0 0 0 0 0 0 0 0.06 0"/>
<feBlend mode="normal" in2="BackgroundImageFix" result="effect1_dropShadow_2456_1496"/>
<feBlend mode="normal" in="SourceGraphic" in2="effect1_dropShadow_2456_1496" result="shape"/>
</filter>
<filter id="filter1_d_2456_1496" x="2.5" y="14.5" width="18" height="18" filterUnits="userSpaceOnUse" color-interpolation-filters="sRGB">
<feFlood flood-opacity="0" result="BackgroundImageFix"/>
<feColorMatrix in="SourceAlpha" type="matrix" values="0 0 0 0 0 0 0 0 0 0 0 0 0 0 0 0 0 0 127 0" result="hardAlpha"/>
<feOffset dx="1" dy="-1"/>
<feGaussianBlur stdDeviation="0.5"/>
<feComposite in2="hardAlpha" operator="out"/>
<feColorMatrix type="matrix" values="0 0 0 0 0 0 0 0 0 0 0 0 0 0 0 0 0 0 0.04 0"/>
<feBlend mode="normal" in2="BackgroundImageFix" result="effect1_dropShadow_2456_1496"/>
<feBlend mode="normal" in="SourceGraphic" in2="effect1_dropShadow_2456_1496" result="shape"/>
</filter>
<linearGradient id="paint0_linear_2456_1496" x1="18.5371" y1="0.5" x2="18.5371" y2="32.3206" gradientUnits="userSpaceOnUse">
<stop stop-color="white" stop-opacity="0"/>
<stop offset="1" stop-color="white"/>
</linearGradient>
<linearGradient id="paint1_linear_2456_1496" x1="18.5" y1="0.5" x2="18.5" y2="32.5" gradientUnits="userSpaceOnUse">
<stop stop-color="white" stop-opacity="0"/>
<stop offset="1" stop-color="white"/>
</linearGradient>
<clipPath id="clip0_2456_1496">
<rect x="6.5" y="0.5" width="24" height="32" rx="3.55556" fill="white"/>
</clipPath>
</defs>
</svg>
