<svg width="32" height="32" viewBox="0 0 33 37" fill="none" xmlns="http://www.w3.org/2000/svg">
<g filter="url(#filter0_d_2928_1265)">
<g clip-path="url(#clip0_2928_1265)">
<mask id="mask0_2928_1265" style="mask-type:alpha" maskUnits="userSpaceOnUse" x="4" y="0" width="25" height="33">
<path d="M4.85 6.196C4.85 5.19333 4.85027 4.46238 4.89734 3.8863C4.94407 3.31431 5.03519 2.92589 5.19987 2.60269C5.50762 1.99869 5.99869 1.50762 6.60269 1.19987C6.92589 1.03519 7.31431 0.944073 7.8863 0.89734C8.46238 0.850272 9.19333 0.85 10.196 0.85H19.5118C20.2622 0.85 20.5804 0.852249 20.876 0.92322C21.1464 0.988136 21.4049 1.09521 21.642 1.2405C21.9012 1.39935 22.1278 1.62274 22.6584 2.15337L26.8466 6.3416C27.3773 6.87223 27.6006 7.09881 27.7595 7.35802C27.9048 7.59512 28.0119 7.85362 28.0768 8.12401C28.1478 8.41962 28.15 8.73779 28.15 9.48822V26.804C28.15 27.8067 28.1497 28.5376 28.1027 29.1137C28.0559 29.6857 27.9648 30.0741 27.8001 30.3973C27.4924 31.0013 27.0013 31.4924 26.3973 31.8001C26.0741 31.9648 25.6857 32.0559 25.1137 32.1027C24.5376 32.1497 23.8067 32.15 22.804 32.15H10.196C9.19333 32.15 8.46238 32.1497 7.8863 32.1027C7.31431 32.0559 6.92589 31.9648 6.60269 31.8001C5.99869 31.4924 5.50762 31.0013 5.19987 30.3973C5.03519 30.0741 4.94407 29.6857 4.89734 29.1137C4.85027 28.5376 4.85 27.8067 4.85 26.804V6.196Z" fill="#D9D9D9"/>
<path d="M4.85 6.196C4.85 5.19333 4.85027 4.46238 4.89734 3.8863C4.94407 3.31431 5.03519 2.92589 5.19987 2.60269C5.50762 1.99869 5.99869 1.50762 6.60269 1.19987C6.92589 1.03519 7.31431 0.944073 7.8863 0.89734C8.46238 0.850272 9.19333 0.85 10.196 0.85H19.5118C20.2622 0.85 20.5804 0.852249 20.876 0.92322C21.1464 0.988136 21.4049 1.09521 21.642 1.2405C21.9012 1.39935 22.1278 1.62274 22.6584 2.15337L26.8466 6.3416C27.3773 6.87223 27.6006 7.09881 27.7595 7.35802C27.9048 7.59512 28.0119 7.85362 28.0768 8.12401C28.1478 8.41962 28.15 8.73779 28.15 9.48822V26.804C28.15 27.8067 28.1497 28.5376 28.1027 29.1137C28.0559 29.6857 27.9648 30.0741 27.8001 30.3973C27.4924 31.0013 27.0013 31.4924 26.3973 31.8001C26.0741 31.9648 25.6857 32.0559 25.1137 32.1027C24.5376 32.1497 23.8067 32.15 22.804 32.15H10.196C9.19333 32.15 8.46238 32.1497 7.8863 32.1027C7.31431 32.0559 6.92589 31.9648 6.60269 31.8001C5.99869 31.4924 5.50762 31.0013 5.19987 30.3973C5.03519 30.0741 4.94407 29.6857 4.89734 29.1137C4.85027 28.5376 4.85 27.8067 4.85 26.804V6.196Z" fill="#F6F6F6"/>
<path d="M4.85 6.196C4.85 5.19333 4.85027 4.46238 4.89734 3.8863C4.94407 3.31431 5.03519 2.92589 5.19987 2.60269C5.50762 1.99869 5.99869 1.50762 6.60269 1.19987C6.92589 1.03519 7.31431 0.944073 7.8863 0.89734C8.46238 0.850272 9.19333 0.85 10.196 0.85H19.5118C20.2622 0.85 20.5804 0.852249 20.876 0.92322C21.1464 0.988136 21.4049 1.09521 21.642 1.2405C21.9012 1.39935 22.1278 1.62274 22.6584 2.15337L26.8466 6.3416C27.3773 6.87223 27.6006 7.09881 27.7595 7.35802C27.9048 7.59512 28.0119 7.85362 28.0768 8.12401C28.1478 8.41962 28.15 8.73779 28.15 9.48822V26.804C28.15 27.8067 28.1497 28.5376 28.1027 29.1137C28.0559 29.6857 27.9648 30.0741 27.8001 30.3973C27.4924 31.0013 27.0013 31.4924 26.3973 31.8001C26.0741 31.9648 25.6857 32.0559 25.1137 32.1027C24.5376 32.1497 23.8067 32.15 22.804 32.15H10.196C9.19333 32.15 8.46238 32.1497 7.8863 32.1027C7.31431 32.0559 6.92589 31.9648 6.60269 31.8001C5.99869 31.4924 5.50762 31.0013 5.19987 30.3973C5.03519 30.0741 4.94407 29.6857 4.89734 29.1137C4.85027 28.5376 4.85 27.8067 4.85 26.804V6.196Z" stroke="#CECECE" stroke-width="0.7"/>
</mask>
<g mask="url(#mask0_2928_1265)">
<path d="M4.85 6.196C4.85 5.19333 4.85027 4.46238 4.89734 3.8863C4.94407 3.31431 5.03519 2.92589 5.19987 2.60269C5.50762 1.99869 5.99869 1.50762 6.60269 1.19987C6.92589 1.03519 7.31431 0.944073 7.8863 0.89734C8.46238 0.850272 9.19333 0.85 10.196 0.85H19.5118C20.2622 0.85 20.5804 0.852249 20.876 0.92322C21.1464 0.988136 21.4049 1.09521 21.642 1.2405C21.9012 1.39935 22.1278 1.62274 22.6584 2.15337L26.8466 6.3416C27.3773 6.87223 27.6006 7.09881 27.7595 7.35802C27.9048 7.59512 28.0119 7.85362 28.0768 8.12401C28.1478 8.41962 28.15 8.73779 28.15 9.48822V26.804C28.15 27.8067 28.1497 28.5376 28.1027 29.1137C28.0559 29.6857 27.9648 30.0741 27.8001 30.3973C27.4924 31.0013 27.0013 31.4924 26.3973 31.8001C26.0741 31.9648 25.6857 32.0559 25.1137 32.1027C24.5376 32.1497 23.8067 32.15 22.804 32.15H10.196C9.19333 32.15 8.46238 32.1497 7.8863 32.1027C7.31431 32.0559 6.92589 31.9648 6.60269 31.8001C5.99869 31.4924 5.50762 31.0013 5.19987 30.3973C5.03519 30.0741 4.94407 29.6857 4.89734 29.1137C4.85027 28.5376 4.85 27.8067 4.85 26.804V6.196Z" fill="#FAFAFA"/>
<path d="M4.85 6.196C4.85 5.19333 4.85027 4.46238 4.89734 3.8863C4.94407 3.31431 5.03519 2.92589 5.19987 2.60269C5.50762 1.99869 5.99869 1.50762 6.60269 1.19987C6.92589 1.03519 7.31431 0.944073 7.8863 0.89734C8.46238 0.850272 9.19333 0.85 10.196 0.85H19.5118C20.2622 0.85 20.5804 0.852249 20.876 0.92322C21.1464 0.988136 21.4049 1.09521 21.642 1.2405C21.9012 1.39935 22.1278 1.62274 22.6584 2.15337L26.8466 6.3416C27.3773 6.87223 27.6006 7.09881 27.7595 7.35802C27.9048 7.59512 28.0119 7.85362 28.0768 8.12401C28.1478 8.41962 28.15 8.73779 28.15 9.48822V26.804C28.15 27.8067 28.1497 28.5376 28.1027 29.1137C28.0559 29.6857 27.9648 30.0741 27.8001 30.3973C27.4924 31.0013 27.0013 31.4924 26.3973 31.8001C26.0741 31.9648 25.6857 32.0559 25.1137 32.1027C24.5376 32.1497 23.8067 32.15 22.804 32.15H10.196C9.19333 32.15 8.46238 32.1497 7.8863 32.1027C7.31431 32.0559 6.92589 31.9648 6.60269 31.8001C5.99869 31.4924 5.50762 31.0013 5.19987 30.3973C5.03519 30.0741 4.94407 29.6857 4.89734 29.1137C4.85027 28.5376 4.85 27.8067 4.85 26.804V6.196Z" fill="url(#paint0_linear_2928_1265)" fill-opacity="0.4"/>
<path d="M4.85 6.196C4.85 5.19333 4.85027 4.46238 4.89734 3.8863C4.94407 3.31431 5.03519 2.92589 5.19987 2.60269C5.50762 1.99869 5.99869 1.50762 6.60269 1.19987C6.92589 1.03519 7.31431 0.944073 7.8863 0.89734C8.46238 0.850272 9.19333 0.85 10.196 0.85H19.5118C20.2622 0.85 20.5804 0.852249 20.876 0.92322C21.1464 0.988136 21.4049 1.09521 21.642 1.2405C21.9012 1.39935 22.1278 1.62274 22.6584 2.15337L26.8466 6.3416C27.3773 6.87223 27.6006 7.09881 27.7595 7.35802C27.9048 7.59512 28.0119 7.85362 28.0768 8.12401C28.1478 8.41962 28.15 8.73779 28.15 9.48822V26.804C28.15 27.8067 28.1497 28.5376 28.1027 29.1137C28.0559 29.6857 27.9648 30.0741 27.8001 30.3973C27.4924 31.0013 27.0013 31.4924 26.3973 31.8001C26.0741 31.9648 25.6857 32.0559 25.1137 32.1027C24.5376 32.1497 23.8067 32.15 22.804 32.15H10.196C9.19333 32.15 8.46238 32.1497 7.8863 32.1027C7.31431 32.0559 6.92589 31.9648 6.60269 31.8001C5.99869 31.4924 5.50762 31.0013 5.19987 30.3973C5.03519 30.0741 4.94407 29.6857 4.89734 29.1137C4.85027 28.5376 4.85 27.8067 4.85 26.804V6.196Z" stroke="#CECECE" stroke-width="0.7"/>
<path fill-rule="evenodd" clip-rule="evenodd" d="M8.94678 11.6359C8.94678 11.145 9.34475 10.747 9.83567 10.747H17.8357C18.3266 10.747 18.7246 11.145 18.7246 11.6359C18.7246 12.1268 18.3266 12.5248 17.8357 12.5248H9.83567C9.34475 12.5248 8.94678 12.1268 8.94678 11.6359Z" fill="#CECECE"/>
<path fill-rule="evenodd" clip-rule="evenodd" d="M8.94678 14.6359C8.94678 14.145 9.34475 13.747 9.83567 13.747H13.8357C14.3266 13.747 14.7246 14.145 14.7246 14.6359C14.7246 15.1268 14.3266 15.5248 13.8357 15.5248H9.83567C9.34475 15.5248 8.94678 15.1268 8.94678 14.6359Z" fill="#CECECE"/>
<g filter="url(#filter1_d_2928_1265)">
<mask id="path-5-inside-1_2928_1265" fill="white">
<path d="M20.5967 4.94V0.5H28.5967V8.5H24.1567C22.1905 8.5 20.5967 6.90613 20.5967 4.94Z"/>
</mask>
<path d="M20.5967 4.94V0.5H28.5967V8.5H24.1567C22.1905 8.5 20.5967 6.90613 20.5967 4.94Z" fill="#E5E5E5"/>
<path d="M20.5967 0.5V-0.2H19.8967V0.5H20.5967ZM28.5967 8.5V9.2H29.2967V8.5H28.5967ZM28.5967 0.5H29.2967V-0.2H28.5967V0.5ZM19.8967 0.5V4.94H21.2967V0.5H19.8967ZM24.1567 9.2H28.5967V7.8H24.1567V9.2ZM20.5967 1.2H28.5967V-0.2H20.5967V1.2ZM27.8967 0.5V8.5H29.2967V0.5H27.8967ZM19.8967 4.94C19.8967 7.29273 21.8039 9.2 24.1567 9.2V7.8C22.5771 7.8 21.2967 6.51953 21.2967 4.94H19.8967Z" fill="#CECECE" mask="url(#path-5-inside-1_2928_1265)"/>
</g>
<path d="M4.85 6.196C4.85 5.19333 4.85027 4.46238 4.89734 3.8863C4.94407 3.31431 5.03519 2.92589 5.19987 2.60269C5.50762 1.99869 5.99869 1.50762 6.60269 1.19987C6.92589 1.03519 7.31431 0.944073 7.8863 0.89734C8.46238 0.850272 9.19333 0.85 10.196 0.85H19.5118C20.2622 0.85 20.5804 0.852249 20.876 0.92322C21.1464 0.988136 21.4049 1.09521 21.642 1.2405C21.9012 1.39935 22.1278 1.62274 22.6584 2.15337L26.8466 6.3416C27.3773 6.87223 27.6006 7.09881 27.7595 7.35802C27.9048 7.59512 28.0119 7.85362 28.0768 8.12401C28.1478 8.41962 28.15 8.73779 28.15 9.48822V26.804C28.15 27.8067 28.1497 28.5376 28.1027 29.1137C28.0559 29.6857 27.9648 30.0741 27.8001 30.3973C27.4924 31.0013 27.0013 31.4924 26.3973 31.8001C26.0741 31.9648 25.6857 32.0559 25.1137 32.1027C24.5376 32.1497 23.8067 32.15 22.804 32.15H10.196C9.19333 32.15 8.46238 32.1497 7.8863 32.1027C7.31431 32.0559 6.92589 31.9648 6.60269 31.8001C5.99869 31.4924 5.50762 31.0013 5.19987 30.3973C5.03519 30.0741 4.94407 29.6857 4.89734 29.1137C4.85027 28.5376 4.85 27.8067 4.85 26.804V6.196Z" stroke="#CECECE" stroke-width="0.7"/>
<path d="M4.85 6.196C4.85 5.19333 4.85027 4.46238 4.89734 3.8863C4.94407 3.31431 5.03519 2.92589 5.19987 2.60269C5.50762 1.99869 5.99869 1.50762 6.60269 1.19987C6.92589 1.03519 7.31431 0.944073 7.8863 0.89734C8.46238 0.850272 9.19333 0.85 10.196 0.85H19.5118C20.2622 0.85 20.5804 0.852249 20.876 0.92322C21.1464 0.988136 21.4049 1.09521 21.642 1.2405C21.9012 1.39935 22.1278 1.62274 22.6584 2.15337L26.8466 6.3416C27.3773 6.87223 27.6006 7.09881 27.7595 7.35802C27.9048 7.59512 28.0119 7.85362 28.0768 8.12401C28.1478 8.41962 28.15 8.73779 28.15 9.48822V26.804C28.15 27.8067 28.1497 28.5376 28.1027 29.1137C28.0559 29.6857 27.9648 30.0741 27.8001 30.3973C27.4924 31.0013 27.0013 31.4924 26.3973 31.8001C26.0741 31.9648 25.6857 32.0559 25.1137 32.1027C24.5376 32.1497 23.8067 32.15 22.804 32.15H10.196C9.19333 32.15 8.46238 32.1497 7.8863 32.1027C7.31431 32.0559 6.92589 31.9648 6.60269 31.8001C5.99869 31.4924 5.50762 31.0013 5.19987 30.3973C5.03519 30.0741 4.94407 29.6857 4.89734 29.1137C4.85027 28.5376 4.85 27.8067 4.85 26.804V6.196Z" stroke="url(#paint1_linear_2928_1265)" stroke-opacity="0.2" stroke-width="0.7"/>
</g>
</g>
</g>
<defs>
<filter id="filter0_d_2928_1265" x="-1.5" y="0.5" width="36" height="36" filterUnits="userSpaceOnUse" color-interpolation-filters="sRGB">
<feFlood flood-opacity="0" result="BackgroundImageFix"/>
<feColorMatrix in="SourceAlpha" type="matrix" values="0 0 0 0 0 0 0 0 0 0 0 0 0 0 0 0 0 0 127 0" result="hardAlpha"/>
<feOffset dy="2"/>
<feGaussianBlur stdDeviation="1"/>
<feComposite in2="hardAlpha" operator="out"/>
<feColorMatrix type="matrix" values="0 0 0 0 0 0 0 0 0 0 0 0 0 0 0 0 0 0 0.06 0"/>
<feBlend mode="normal" in2="BackgroundImageFix" result="effect1_dropShadow_2928_1265"/>
<feBlend mode="normal" in="SourceGraphic" in2="effect1_dropShadow_2928_1265" result="shape"/>
</filter>
<filter id="filter1_d_2928_1265" x="18.5967" y="-1.5" width="12" height="12" filterUnits="userSpaceOnUse" color-interpolation-filters="sRGB">
<feFlood flood-opacity="0" result="BackgroundImageFix"/>
<feColorMatrix in="SourceAlpha" type="matrix" values="0 0 0 0 0 0 0 0 0 0 0 0 0 0 0 0 0 0 127 0" result="hardAlpha"/>
<feOffset/>
<feGaussianBlur stdDeviation="1"/>
<feComposite in2="hardAlpha" operator="out"/>
<feColorMatrix type="matrix" values="0 0 0 0 0 0 0 0 0 0 0 0 0 0 0 0 0 0 0.1 0"/>
<feBlend mode="normal" in2="BackgroundImageFix" result="effect1_dropShadow_2928_1265"/>
<feBlend mode="normal" in="SourceGraphic" in2="effect1_dropShadow_2928_1265" result="shape"/>
</filter>
<linearGradient id="paint0_linear_2928_1265" x1="16.5" y1="0.5" x2="16.5" y2="32.5" gradientUnits="userSpaceOnUse">
<stop stop-color="white" stop-opacity="0"/>
<stop offset="1" stop-color="white"/>
</linearGradient>
<linearGradient id="paint1_linear_2928_1265" x1="16.5" y1="0.5" x2="16.5" y2="32.5" gradientUnits="userSpaceOnUse">
<stop stop-color="white" stop-opacity="0"/>
<stop offset="1" stop-color="white"/>
</linearGradient>
<clipPath id="clip0_2928_1265">
<rect x="4.5" y="0.5" width="24" height="32" rx="3.55556" fill="white"/>
</clipPath>
</defs>
</svg>
