<svg width="17" height="16" viewBox="0 0 17 16" fill="none" xmlns="http://www.w3.org/2000/svg">
<rect x="0.5" width="16" height="16" rx="4" fill="#929292"/>
<path d="M5 12.5C4.725 12.5 4.48958 12.4021 4.29375 12.2063C4.09792 12.0104 4 11.775 4 11.5V4.5C4 4.225 4.09792 3.98958 4.29375 3.79375C4.48958 3.59792 4.725 3.5 5 3.5H12C12.275 3.5 12.5104 3.59792 12.7063 3.79375C12.9021 3.98958 13 4.225 13 4.5V11.5C13 11.775 12.9021 12.0104 12.7063 12.2063C12.5104 12.4021 12.275 12.5 12 12.5H5ZM5.5 10.5H11.5L9.625 8L8.125 10L7 8.5L5.5 10.5Z" fill="white"/>
</svg>
