<svg width="17" height="16" viewBox="0 0 17 16" fill="none" xmlns="http://www.w3.org/2000/svg">
<rect x="0.5" width="16" height="16" rx="4" fill="#929292"/>
<path d="M5.65739 5.64735H12.8787C12.855 5.24303 12.7388 4.92992 12.5302 4.70803C12.2976 4.45768 11.9558 4.3325 11.5047 4.3325H7.5959C7.44459 4.3325 7.3171 4.31139 7.21342 4.26916C7.10975 4.22693 6.99907 4.15605 6.88139 4.05651L6.64182 3.84386C6.54375 3.75639 6.44988 3.68852 6.36022 3.64026C6.27055 3.58898 6.17248 3.55279 6.06601 3.53167C5.95953 3.51056 5.83344 3.5 5.68774 3.5H4.49829C4.10601 3.5 3.79919 3.62216 3.57783 3.86648C3.35928 4.10779 3.25 4.46673 3.25 4.94331V9.37038L3.81516 7.0889C4.01239 6.29276 4.83718 5.64735 5.65739 5.64735Z" fill="white"/>
<path d="M3.69541 11.7352C3.86361 11.9951 4.17467 12.125 4.62859 12.125H9.87085L10.0137 11.5895H9.25432C9.17867 11.5895 9.12142 11.5642 9.08254 11.5136C9.04367 11.463 9.03397 11.4011 9.05346 11.328C9.07295 11.2549 9.11526 11.1945 9.18037 11.1467C9.24623 11.0961 9.31698 11.0708 9.39262 11.0708H10.152L10.3184 10.4467H9.55904C9.4834 10.4467 9.42614 10.4214 9.38726 10.3708C9.34839 10.3202 9.33907 10.257 9.35931 10.1811C9.37805 10.1108 9.41998 10.0518 9.48509 10.004C9.55095 9.9534 9.62171 9.9281 9.69735 9.9281H10.4567L10.6231 9.30403H9.86377C9.78812 9.30403 9.73086 9.27873 9.69199 9.22813C9.65386 9.17472 9.64455 9.11147 9.66404 9.03838C9.68278 8.96811 9.7247 8.90907 9.78982 8.86128C9.85568 8.81068 9.92643 8.78538 10.0021 8.78538H10.7614L10.9278 8.16132H10.1685C10.0928 8.16132 10.0356 8.13602 9.99671 8.08542C9.95859 8.03201 9.94927 7.96876 9.96876 7.89567C9.9875 7.82539 10.0294 7.76636 10.0945 7.71857C10.1604 7.66797 10.2312 7.64267 10.3068 7.64267H11.0661L11.4216 6.30971H5.49334C5.04998 6.30971 4.60415 6.65857 4.49754 7.08892L3.62806 10.5989C3.50398 11.0998 3.52643 11.4785 3.69541 11.7352Z" fill="white"/>
<path d="M11.9627 6.30971L11.7602 7.0692H12.5195C12.5952 7.0692 12.6524 7.0945 12.6913 7.1451C12.7309 7.19289 12.741 7.25333 12.7215 7.32642C12.702 7.39951 12.6593 7.46135 12.5935 7.51195C12.5276 7.56255 12.4569 7.58785 12.3812 7.58785H11.6219L11.4555 8.21192H12.2148C12.2905 8.21192 12.3477 8.23722 12.3866 8.28782C12.4262 8.33561 12.4363 8.39604 12.4168 8.46913C12.3973 8.54222 12.3546 8.60407 12.2888 8.65467C12.2229 8.70527 12.1521 8.73057 12.0765 8.73057H11.3172L11.1507 9.35463H11.9101C11.9857 9.35463 12.043 9.37993 12.0819 9.43053C12.1215 9.47832 12.1316 9.53876 12.1121 9.61185C12.0926 9.68494 12.0499 9.74678 11.984 9.79738C11.9182 9.84798 11.8474 9.87328 11.7718 9.87328H11.0124L10.846 10.4973H11.6054C11.681 10.4973 11.7383 10.5226 11.7771 10.5732C11.8168 10.621 11.8268 10.6815 11.8073 10.7546C11.7879 10.8277 11.7452 10.8895 11.6793 10.9401C11.6135 10.9907 11.5427 11.016 11.4671 11.016H10.7077L10.412 12.125H11.6098C12.0105 12.125 12.3551 11.9951 12.6436 11.7352C12.9313 11.4785 13.1372 11.0998 13.2613 10.5989L14.1308 7.08893C14.2374 6.65858 13.9644 6.30971 13.5211 6.30971H11.9627Z" fill="white"/>
</svg>
