<svg width="17" height="16" viewBox="0 0 17 16" fill="none" xmlns="http://www.w3.org/2000/svg">
<rect x="0.5" width="16" height="16" rx="4" fill="#6A6AF4"/>
<path d="M10.6114 12.8117C11.0494 12.6889 11.4687 12.4648 11.7439 12.0688C12.0156 11.6811 12.0921 11.1892 12.0921 10.7159V3.78162C12.0921 3.65884 12.0854 3.53584 12.0706 3.41431C12.2881 3.49986 12.4557 3.64122 12.5735 3.83839C12.7124 4.06259 12.7819 4.35784 12.7819 4.72413V11.7674C12.7819 12.2632 12.6603 12.6342 12.4172 12.8805C12.174 13.1268 11.8077 13.2499 11.3183 13.2499H8.65784C8.72085 13.2389 8.78402 13.2275 8.84733 13.2159C9.40251 13.1167 9.98924 12.982 10.607 12.813L10.6114 12.8117Z" fill="white"/>
<path fill-rule="evenodd" clip-rule="evenodd" d="M4.21826 11.6206V4.56789C4.21826 4.13844 4.33352 3.8132 4.56403 3.59216C4.7977 3.37112 5.10716 3.24955 5.4924 3.22744C6.06078 3.19271 6.59917 3.14534 7.10756 3.08535C7.61595 3.02219 8.10224 2.94956 8.56642 2.86746C9.03376 2.78536 9.48847 2.69379 9.93055 2.59274C10.3853 2.48538 10.7342 2.53906 10.9773 2.75379C11.2205 2.96851 11.342 3.31112 11.342 3.78162V10.7159C11.342 11.1296 11.271 11.4375 11.1289 11.6396C10.9868 11.8448 10.7468 11.9948 10.4089 12.0895C9.80898 12.2537 9.24375 12.3832 8.71326 12.4779C8.18276 12.5758 7.6649 12.65 7.15966 12.7006C6.65443 12.7511 6.13657 12.7906 5.60607 12.819C5.16715 12.8442 4.82612 12.7527 4.58298 12.5443C4.33983 12.339 4.21826 12.0311 4.21826 11.6206ZM5.95324 5.84841C6.6488 5.80414 7.28618 5.73614 7.86533 5.64437C8.00584 5.62146 8.14615 5.5976 8.28592 5.57284C8.43219 5.54694 8.53797 5.41947 8.53797 5.27126C8.53797 5.07933 8.36426 4.93478 8.17562 4.96696C8.06726 4.98544 7.95833 5.00341 7.84882 5.02086C7.27548 5.11221 6.64195 5.17999 5.94821 5.22414C5.84432 5.23084 5.76166 5.26321 5.70853 5.32772C5.65829 5.38873 5.63367 5.46211 5.63367 5.54575C5.63367 5.63079 5.66236 5.70482 5.71963 5.76567L5.72044 5.76647C5.78251 5.82855 5.86138 5.85542 5.95324 5.84841ZM5.95301 7.42101C6.64866 7.37674 7.28612 7.30874 7.86533 7.21695C8.44704 7.1221 9.02261 7.01142 9.5917 6.88496C9.70718 6.8593 9.79368 6.81888 9.83695 6.75611C9.87949 6.69577 9.90052 6.62661 9.90052 6.54995C9.90052 6.46348 9.86758 6.389 9.80351 6.32849C9.73452 6.26333 9.63805 6.24814 9.5239 6.27165L9.52317 6.27181C8.98087 6.39478 8.42276 6.50199 7.84882 6.59344C7.27548 6.68479 6.64195 6.75257 5.94821 6.79672C5.84432 6.80342 5.76166 6.83579 5.70853 6.9003C5.65853 6.96101 5.63367 7.03269 5.63367 7.1136C5.63367 7.20135 5.66203 7.27712 5.71959 7.33828L5.72125 7.33984C5.78312 7.39807 5.86118 7.42456 5.95207 7.42107L5.95301 7.42101ZM5.95317 8.99353C6.64877 8.94611 7.28616 8.87653 7.86529 8.78475C8.44708 8.69306 9.02254 8.58397 9.5917 8.4575C9.70745 8.43177 9.79404 8.38967 9.83724 8.3235C9.87936 8.26358 9.90052 8.19622 9.90052 8.12249C9.90052 8.03602 9.86758 7.96154 9.80351 7.90102C9.73452 7.83586 9.63805 7.82069 9.5239 7.84419L9.52337 7.8443C8.981 7.96413 8.42282 8.06978 7.84882 8.16124C7.27543 8.2526 6.64188 8.32196 5.94811 8.36926C5.84426 8.37598 5.76164 8.40834 5.70853 8.47283C5.65853 8.53355 5.63367 8.60523 5.63367 8.68614C5.63367 8.77389 5.66203 8.84966 5.71959 8.91082L5.72125 8.91238C5.78312 8.97061 5.86118 8.9971 5.95207 8.99361L5.95317 8.99353ZM7.86533 10.3464C7.28619 10.4382 6.64881 10.5062 5.95325 10.5504C5.86139 10.5574 5.78251 10.5306 5.72044 10.4685L5.71964 10.4677C5.66237 10.4068 5.63367 10.3328 5.63367 10.2478C5.63367 10.1641 5.65829 10.0908 5.70853 10.0297C5.76166 9.96523 5.84435 9.93286 5.94824 9.92616C6.64198 9.88201 7.27548 9.81423 7.84882 9.72288C7.95833 9.70543 8.06726 9.68746 8.17562 9.66898C8.36426 9.63681 8.53797 9.78135 8.53797 9.97328C8.53797 10.1215 8.43219 10.249 8.28592 10.2749C8.14615 10.2996 8.00584 10.3235 7.86533 10.3464Z" fill="white"/>
</svg>
