<svg width="32" height="32" viewBox="0 0 35 37" fill="none" xmlns="http://www.w3.org/2000/svg">
<g filter="url(#filter0_d_2456_1561)">
<rect x="4.85" y="5.85" width="26.3" height="21.3" rx="3.42778" fill="white"/>
<rect x="4.85" y="5.85" width="26.3" height="21.3" rx="3.42778" stroke="#F4C9B7" stroke-width="0.7"/>
<path fill-rule="evenodd" clip-rule="evenodd" d="M8.55566 10.5C8.55566 9.97838 8.97851 9.55554 9.50011 9.55554H17.5001C18.0217 9.55554 18.4446 9.97838 18.4446 10.5C18.4446 11.0216 18.0217 11.4444 17.5001 11.4444H9.50011C8.97851 11.4444 8.55566 11.0216 8.55566 10.5Z" fill="#E4794A"/>
<path fill-rule="evenodd" clip-rule="evenodd" d="M8.55566 14.5C8.55566 13.9784 8.97851 13.5555 9.50011 13.5555H26.5001C27.0217 13.5555 27.4446 13.9784 27.4446 14.5C27.4446 15.0216 27.0217 15.4444 26.5001 15.4444H9.50011C8.97851 15.4444 8.55566 15.0216 8.55566 14.5Z" fill="#E4794A" fill-opacity="0.4"/>
<g filter="url(#filter1_d_2456_1561)">
<rect x="2.5" y="16.5" width="16" height="16" rx="4" fill="#E4794A"/>
<path d="M7.375 29.3905V20.0473H10.4583C12.5138 20.0473 13.7684 21.1018 13.7684 22.8369C13.7684 24.5588 12.5138 25.6132 10.4583 25.6132H9.27034V29.3905H7.375ZM10.5384 21.6223H9.27034V24.0382H10.5384C11.3392 24.0382 11.8197 23.571 11.8197 22.8102C11.8197 22.1028 11.3392 21.6223 10.5384 21.6223Z" fill="white"/>
</g>
</g>
<defs>
<filter id="filter0_d_2456_1561" x="0.5" y="0.5" width="36" height="36" filterUnits="userSpaceOnUse" color-interpolation-filters="sRGB">
<feFlood flood-opacity="0" result="BackgroundImageFix"/>
<feColorMatrix in="SourceAlpha" type="matrix" values="0 0 0 0 0 0 0 0 0 0 0 0 0 0 0 0 0 0 127 0" result="hardAlpha"/>
<feOffset dy="2"/>
<feGaussianBlur stdDeviation="1"/>
<feComposite in2="hardAlpha" operator="out"/>
<feColorMatrix type="matrix" values="0 0 0 0 0 0 0 0 0 0 0 0 0 0 0 0 0 0 0.06 0"/>
<feBlend mode="normal" in2="BackgroundImageFix" result="effect1_dropShadow_2456_1561"/>
<feBlend mode="normal" in="SourceGraphic" in2="effect1_dropShadow_2456_1561" result="shape"/>
</filter>
<filter id="filter1_d_2456_1561" x="2.5" y="14.5" width="18" height="18" filterUnits="userSpaceOnUse" color-interpolation-filters="sRGB">
<feFlood flood-opacity="0" result="BackgroundImageFix"/>
<feColorMatrix in="SourceAlpha" type="matrix" values="0 0 0 0 0 0 0 0 0 0 0 0 0 0 0 0 0 0 127 0" result="hardAlpha"/>
<feOffset dx="1" dy="-1"/>
<feGaussianBlur stdDeviation="0.5"/>
<feComposite in2="hardAlpha" operator="out"/>
<feColorMatrix type="matrix" values="0 0 0 0 0 0 0 0 0 0 0 0 0 0 0 0 0 0 0.04 0"/>
<feBlend mode="normal" in2="BackgroundImageFix" result="effect1_dropShadow_2456_1561"/>
<feBlend mode="normal" in="SourceGraphic" in2="effect1_dropShadow_2456_1561" result="shape"/>
</filter>
</defs>
</svg>
