<svg width="37" height="37" viewBox="0 0 37 37" fill="none" xmlns="http://www.w3.org/2000/svg">
<g filter="url(#filter0_d_3239_3298)">
<path d="M10.9197 10.2263H30.1765C30.1133 9.14807 29.8035 8.31312 29.2472 7.72142C28.6271 7.05381 27.7155 6.72001 26.5125 6.72001H16.0891C15.6856 6.72001 15.3456 6.6637 15.0691 6.55109C14.7927 6.43848 14.4975 6.24946 14.1837 5.98403L13.5448 5.41696C13.2833 5.1837 13.033 5.00272 12.7939 4.87402C12.5548 4.73728 12.2933 4.64076 12.0093 4.58446C11.7254 4.52815 11.3892 4.5 11.0006 4.5H7.82877C6.78269 4.5 5.96451 4.82576 5.37422 5.47729C4.79141 6.12077 4.5 7.07794 4.5 8.34882V20.1543L6.00711 14.0704C6.53303 11.9473 8.73248 10.2263 10.9197 10.2263Z" fill="#929292"/>
<path d="M10.9197 10.2263H30.1765C30.1133 9.14807 29.8035 8.31312 29.2472 7.72142C28.6271 7.05381 27.7155 6.72001 26.5125 6.72001H16.0891C15.6856 6.72001 15.3456 6.6637 15.0691 6.55109C14.7927 6.43848 14.4975 6.24946 14.1837 5.98403L13.5448 5.41696C13.2833 5.1837 13.033 5.00272 12.7939 4.87402C12.5548 4.73728 12.2933 4.64076 12.0093 4.58446C11.7254 4.52815 11.3892 4.5 11.0006 4.5H7.82877C6.78269 4.5 5.96451 4.82576 5.37422 5.47729C4.79141 6.12077 4.5 7.07794 4.5 8.34882V20.1543L6.00711 14.0704C6.53303 11.9473 8.73248 10.2263 10.9197 10.2263Z" fill="url(#paint0_linear_3239_3298)" fill-opacity="0.16"/>
<path d="M10.9197 10.2263H30.1765C30.1133 9.14807 29.8035 8.31312 29.2472 7.72142C28.6271 7.05381 27.7155 6.72001 26.5125 6.72001H16.0891C15.6856 6.72001 15.3456 6.6637 15.0691 6.55109C14.7927 6.43848 14.4975 6.24946 14.1837 5.98403L13.5448 5.41696C13.2833 5.1837 13.033 5.00272 12.7939 4.87402C12.5548 4.73728 12.2933 4.64076 12.0093 4.58446C11.7254 4.52815 11.3892 4.5 11.0006 4.5H7.82877C6.78269 4.5 5.96451 4.82576 5.37422 5.47729C4.79141 6.12077 4.5 7.07794 4.5 8.34882V20.1543L6.00711 14.0704C6.53303 11.9473 8.73248 10.2263 10.9197 10.2263Z" fill="url(#paint1_linear_3239_3298)" fill-opacity="0.07"/>
<path d="M5.68775 26.4607C6.13628 27.1536 6.96578 27.5 8.17624 27.5H22.1556L22.5364 26.0719H20.5115C20.3098 26.0719 20.1571 26.0044 20.0534 25.8695C19.9498 25.7346 19.9239 25.5697 19.9759 25.3748C20.0279 25.1798 20.1407 25.0187 20.3143 24.8912C20.4899 24.7563 20.6786 24.6888 20.8803 24.6888H22.9052L23.349 23.0247H21.3241C21.1224 23.0247 20.9697 22.9572 20.866 22.8223C20.7624 22.6873 20.7375 22.5187 20.7915 22.3163C20.8415 22.1289 20.9533 21.9714 21.1269 21.844C21.3025 21.7091 21.4912 21.6416 21.6929 21.6416H23.7178L24.1616 19.9774H22.1367C21.935 19.9774 21.7823 19.91 21.6786 19.775C21.577 19.6326 21.5521 19.4639 21.6041 19.269C21.6541 19.0816 21.7659 18.9242 21.9395 18.7968C22.1151 18.6618 22.3038 18.5944 22.5055 18.5944H24.5304L24.9742 16.9302H22.9493C22.7476 16.9302 22.5949 16.8627 22.4912 16.7278C22.3896 16.5854 22.3647 16.4167 22.4167 16.2218C22.4667 16.0344 22.5785 15.877 22.7521 15.7495C22.9277 15.6146 23.1164 15.5471 23.3181 15.5471H25.343L26.2909 11.9926H10.4822C9.29995 11.9926 8.11106 12.9229 7.82678 14.0705L5.50817 23.4303C5.17729 24.766 5.23715 25.7761 5.68775 26.4607Z" fill="#929292"/>
<path d="M5.68775 26.4607C6.13628 27.1536 6.96578 27.5 8.17624 27.5H22.1556L22.5364 26.0719H20.5115C20.3098 26.0719 20.1571 26.0044 20.0534 25.8695C19.9498 25.7346 19.9239 25.5697 19.9759 25.3748C20.0279 25.1798 20.1407 25.0187 20.3143 24.8912C20.4899 24.7563 20.6786 24.6888 20.8803 24.6888H22.9052L23.349 23.0247H21.3241C21.1224 23.0247 20.9697 22.9572 20.866 22.8223C20.7624 22.6873 20.7375 22.5187 20.7915 22.3163C20.8415 22.1289 20.9533 21.9714 21.1269 21.844C21.3025 21.7091 21.4912 21.6416 21.6929 21.6416H23.7178L24.1616 19.9774H22.1367C21.935 19.9774 21.7823 19.91 21.6786 19.775C21.577 19.6326 21.5521 19.4639 21.6041 19.269C21.6541 19.0816 21.7659 18.9242 21.9395 18.7968C22.1151 18.6618 22.3038 18.5944 22.5055 18.5944H24.5304L24.9742 16.9302H22.9493C22.7476 16.9302 22.5949 16.8627 22.4912 16.7278C22.3896 16.5854 22.3647 16.4167 22.4167 16.2218C22.4667 16.0344 22.5785 15.877 22.7521 15.7495C22.9277 15.6146 23.1164 15.5471 23.3181 15.5471H25.343L26.2909 11.9926H10.4822C9.29995 11.9926 8.11106 12.9229 7.82678 14.0705L5.50817 23.4303C5.17729 24.766 5.23715 25.7761 5.68775 26.4607Z" fill="url(#paint2_linear_3239_3298)" fill-opacity="0.16"/>
<path d="M5.68775 26.4607C6.13628 27.1536 6.96578 27.5 8.17624 27.5H22.1556L22.5364 26.0719H20.5115C20.3098 26.0719 20.1571 26.0044 20.0534 25.8695C19.9498 25.7346 19.9239 25.5697 19.9759 25.3748C20.0279 25.1798 20.1407 25.0187 20.3143 24.8912C20.4899 24.7563 20.6786 24.6888 20.8803 24.6888H22.9052L23.349 23.0247H21.3241C21.1224 23.0247 20.9697 22.9572 20.866 22.8223C20.7624 22.6873 20.7375 22.5187 20.7915 22.3163C20.8415 22.1289 20.9533 21.9714 21.1269 21.844C21.3025 21.7091 21.4912 21.6416 21.6929 21.6416H23.7178L24.1616 19.9774H22.1367C21.935 19.9774 21.7823 19.91 21.6786 19.775C21.577 19.6326 21.5521 19.4639 21.6041 19.269C21.6541 19.0816 21.7659 18.9242 21.9395 18.7968C22.1151 18.6618 22.3038 18.5944 22.5055 18.5944H24.5304L24.9742 16.9302H22.9493C22.7476 16.9302 22.5949 16.8627 22.4912 16.7278C22.3896 16.5854 22.3647 16.4167 22.4167 16.2218C22.4667 16.0344 22.5785 15.877 22.7521 15.7495C22.9277 15.6146 23.1164 15.5471 23.3181 15.5471H25.343L26.2909 11.9926H10.4822C9.29995 11.9926 8.11106 12.9229 7.82678 14.0705L5.50817 23.4303C5.17729 24.766 5.23715 25.7761 5.68775 26.4607Z" fill="url(#paint3_linear_3239_3298)" fill-opacity="0.07"/>
<path d="M27.7339 11.9926L27.1939 14.0179H29.2188C29.4205 14.0179 29.5732 14.0853 29.6768 14.2203C29.7825 14.3477 29.8093 14.5089 29.7574 14.7038C29.7054 14.8987 29.5916 15.0636 29.416 15.1985C29.2403 15.3335 29.0517 15.4009 28.8499 15.4009H26.825L26.3813 17.0651H28.4062C28.6079 17.0651 28.7606 17.1326 28.8642 17.2675C28.9699 17.395 28.9967 17.5561 28.9448 17.751C28.8928 17.9459 28.779 18.1108 28.6034 18.2458C28.4277 18.3807 28.2391 18.4482 28.0373 18.4482H26.0124L25.5687 20.1124H27.5936C27.7953 20.1124 27.948 20.1798 28.0516 20.3148C28.1573 20.4422 28.1841 20.6034 28.1322 20.7983C28.0802 20.9932 27.9664 21.1581 27.7908 21.293C27.6151 21.428 27.4265 21.4954 27.2247 21.4954H25.1998L24.7561 23.1596H26.781C26.9827 23.1596 27.1354 23.2271 27.239 23.362C27.3447 23.4894 27.3715 23.6506 27.3196 23.8455C27.2676 24.0404 27.1538 24.2053 26.9782 24.3403C26.8025 24.4752 26.6139 24.5427 26.4122 24.5427H24.3872L23.5986 27.5H26.7927C27.8612 27.5 28.7801 27.1536 29.5496 26.4607C30.3169 25.7761 30.866 24.766 31.1969 23.4303L33.5155 14.0705C33.7998 12.9229 33.0718 11.9926 31.8895 11.9926H27.7339Z" fill="#929292"/>
<path d="M27.7339 11.9926L27.1939 14.0179H29.2188C29.4205 14.0179 29.5732 14.0853 29.6768 14.2203C29.7825 14.3477 29.8093 14.5089 29.7574 14.7038C29.7054 14.8987 29.5916 15.0636 29.416 15.1985C29.2403 15.3335 29.0517 15.4009 28.8499 15.4009H26.825L26.3813 17.0651H28.4062C28.6079 17.0651 28.7606 17.1326 28.8642 17.2675C28.9699 17.395 28.9967 17.5561 28.9448 17.751C28.8928 17.9459 28.779 18.1108 28.6034 18.2458C28.4277 18.3807 28.2391 18.4482 28.0373 18.4482H26.0124L25.5687 20.1124H27.5936C27.7953 20.1124 27.948 20.1798 28.0516 20.3148C28.1573 20.4422 28.1841 20.6034 28.1322 20.7983C28.0802 20.9932 27.9664 21.1581 27.7908 21.293C27.6151 21.428 27.4265 21.4954 27.2247 21.4954H25.1998L24.7561 23.1596H26.781C26.9827 23.1596 27.1354 23.2271 27.239 23.362C27.3447 23.4894 27.3715 23.6506 27.3196 23.8455C27.2676 24.0404 27.1538 24.2053 26.9782 24.3403C26.8025 24.4752 26.6139 24.5427 26.4122 24.5427H24.3872L23.5986 27.5H26.7927C27.8612 27.5 28.7801 27.1536 29.5496 26.4607C30.3169 25.7761 30.866 24.766 31.1969 23.4303L33.5155 14.0705C33.7998 12.9229 33.0718 11.9926 31.8895 11.9926H27.7339Z" fill="url(#paint4_linear_3239_3298)" fill-opacity="0.16"/>
<path d="M27.7339 11.9926L27.1939 14.0179H29.2188C29.4205 14.0179 29.5732 14.0853 29.6768 14.2203C29.7825 14.3477 29.8093 14.5089 29.7574 14.7038C29.7054 14.8987 29.5916 15.0636 29.416 15.1985C29.2403 15.3335 29.0517 15.4009 28.8499 15.4009H26.825L26.3813 17.0651H28.4062C28.6079 17.0651 28.7606 17.1326 28.8642 17.2675C28.9699 17.395 28.9967 17.5561 28.9448 17.751C28.8928 17.9459 28.779 18.1108 28.6034 18.2458C28.4277 18.3807 28.2391 18.4482 28.0373 18.4482H26.0124L25.5687 20.1124H27.5936C27.7953 20.1124 27.948 20.1798 28.0516 20.3148C28.1573 20.4422 28.1841 20.6034 28.1322 20.7983C28.0802 20.9932 27.9664 21.1581 27.7908 21.293C27.6151 21.428 27.4265 21.4954 27.2247 21.4954H25.1998L24.7561 23.1596H26.781C26.9827 23.1596 27.1354 23.2271 27.239 23.362C27.3447 23.4894 27.3715 23.6506 27.3196 23.8455C27.2676 24.0404 27.1538 24.2053 26.9782 24.3403C26.8025 24.4752 26.6139 24.5427 26.4122 24.5427H24.3872L23.5986 27.5H26.7927C27.8612 27.5 28.7801 27.1536 29.5496 26.4607C30.3169 25.7761 30.866 24.766 31.1969 23.4303L33.5155 14.0705C33.7998 12.9229 33.0718 11.9926 31.8895 11.9926H27.7339Z" fill="url(#paint5_linear_3239_3298)" fill-opacity="0.07"/>
</g>
<defs>
<filter id="filter0_d_3239_3298" x="0.5" y="0.5" width="36" height="36" filterUnits="userSpaceOnUse" color-interpolation-filters="sRGB">
<feFlood flood-opacity="0" result="BackgroundImageFix"/>
<feColorMatrix in="SourceAlpha" type="matrix" values="0 0 0 0 0 0 0 0 0 0 0 0 0 0 0 0 0 0 127 0" result="hardAlpha"/>
<feOffset dy="2"/>
<feGaussianBlur stdDeviation="1"/>
<feComposite in2="hardAlpha" operator="out"/>
<feColorMatrix type="matrix" values="0 0 0 0 0 0 0 0 0 0 0 0 0 0 0 0 0 0 0.06 0"/>
<feBlend mode="normal" in2="BackgroundImageFix" result="effect1_dropShadow_3239_3298"/>
<feBlend mode="normal" in="SourceGraphic" in2="effect1_dropShadow_3239_3298" result="shape"/>
</filter>
<linearGradient id="paint0_linear_3239_3298" x1="27.2573" y1="24.1362" x2="10.45" y2="-2.27523" gradientUnits="userSpaceOnUse">
<stop stop-color="white" stop-opacity="0"/>
<stop offset="1" stop-color="white"/>
</linearGradient>
<linearGradient id="paint1_linear_3239_3298" x1="19.0385" y1="16" x2="31.7678" y2="39.4819" gradientUnits="userSpaceOnUse">
<stop stop-opacity="0"/>
<stop offset="1"/>
</linearGradient>
<linearGradient id="paint2_linear_3239_3298" x1="27.2573" y1="24.1362" x2="10.45" y2="-2.27523" gradientUnits="userSpaceOnUse">
<stop stop-color="white" stop-opacity="0"/>
<stop offset="1" stop-color="white"/>
</linearGradient>
<linearGradient id="paint3_linear_3239_3298" x1="19.0385" y1="16" x2="31.7678" y2="39.4819" gradientUnits="userSpaceOnUse">
<stop stop-opacity="0"/>
<stop offset="1"/>
</linearGradient>
<linearGradient id="paint4_linear_3239_3298" x1="27.2573" y1="24.1362" x2="10.45" y2="-2.27523" gradientUnits="userSpaceOnUse">
<stop stop-color="white" stop-opacity="0"/>
<stop offset="1" stop-color="white"/>
</linearGradient>
<linearGradient id="paint5_linear_3239_3298" x1="19.0385" y1="16" x2="31.7678" y2="39.4819" gradientUnits="userSpaceOnUse">
<stop stop-opacity="0"/>
<stop offset="1"/>
</linearGradient>
</defs>
</svg>
