<svg width="32" height="32" viewBox="0 0 35 37" fill="none" xmlns="http://www.w3.org/2000/svg">
<g filter="url(#filter0_d_2456_1581)">
<rect x="6.85" y="2.85" width="24.3" height="27.3" rx="3.42778" fill="white"/>
<rect x="6.85" y="2.85" width="24.3" height="27.3" rx="3.42778" stroke="#99DDBF" stroke-width="0.7"/>
<path fill-rule="evenodd" clip-rule="evenodd" d="M9.55566 6.49999C9.55566 5.97838 9.97851 5.55554 10.5001 5.55554L13.5001 5.55554C14.0217 5.55554 14.4446 5.97838 14.4446 6.49999C14.4446 7.02159 14.0217 7.44443 13.5001 7.44443L10.5001 7.44443C9.97851 7.44443 9.55566 7.02159 9.55566 6.49999Z" fill="#00A95F"/>
<path fill-rule="evenodd" clip-rule="evenodd" d="M9.55566 10.5C9.55566 9.97838 9.97851 9.55554 10.5001 9.55554L13.5001 9.55554C14.0217 9.55554 14.4446 9.97838 14.4446 10.5C14.4446 11.0216 14.0217 11.4444 13.5001 11.4444H10.5001C9.97851 11.4444 9.55566 11.0216 9.55566 10.5Z" fill="#00A95F" fill-opacity="0.4"/>
<path fill-rule="evenodd" clip-rule="evenodd" d="M9.55566 14.5C9.55566 13.9784 9.97851 13.5555 10.5001 13.5555L13.5001 13.5555C14.0217 13.5555 14.4446 13.9784 14.4446 14.5C14.4446 15.0216 14.0217 15.4444 13.5001 15.4444H10.5001C9.97851 15.4444 9.55566 15.0216 9.55566 14.5Z" fill="#00A95F" fill-opacity="0.4"/>
<path fill-rule="evenodd" clip-rule="evenodd" d="M9.55566 18.5C9.55566 17.9784 9.97851 17.5555 10.5001 17.5555H13.5001C14.0217 17.5555 14.4446 17.9784 14.4446 18.5C14.4446 19.0216 14.0217 19.4444 13.5001 19.4444H10.5001C9.97851 19.4444 9.55566 19.0216 9.55566 18.5Z" fill="#00A95F" fill-opacity="0.4"/>
<path fill-rule="evenodd" clip-rule="evenodd" d="M9.55566 22.5C9.55566 21.9784 9.97851 21.5555 10.5001 21.5555H13.5001C14.0217 21.5555 14.4446 21.9784 14.4446 22.5C14.4446 23.0216 14.0217 23.4444 13.5001 23.4444H10.5001C9.97851 23.4444 9.55566 23.0216 9.55566 22.5Z" fill="#00A95F" fill-opacity="0.4"/>
<path fill-rule="evenodd" clip-rule="evenodd" d="M9.55566 26.5C9.55566 25.9784 9.97851 25.5555 10.5001 25.5555H13.5001C14.0217 25.5555 14.4446 25.9784 14.4446 26.5C14.4446 27.0216 14.0217 27.4444 13.5001 27.4444H10.5001C9.97851 27.4444 9.55566 27.0216 9.55566 26.5Z" fill="#00A95F" fill-opacity="0.4"/>
<path fill-rule="evenodd" clip-rule="evenodd" d="M16.5557 6.49999C16.5557 5.97838 16.9785 5.55554 17.5001 5.55554H20.5001C21.0217 5.55554 21.4446 5.97838 21.4446 6.49999C21.4446 7.02159 21.0217 7.44443 20.5001 7.44443H17.5001C16.9785 7.44443 16.5557 7.02159 16.5557 6.49999Z" fill="#00A95F"/>
<path fill-rule="evenodd" clip-rule="evenodd" d="M16.5557 10.5C16.5557 9.97838 16.9785 9.55554 17.5001 9.55554H20.5001C21.0217 9.55554 21.4446 9.97838 21.4446 10.5C21.4446 11.0216 21.0217 11.4444 20.5001 11.4444H17.5001C16.9785 11.4444 16.5557 11.0216 16.5557 10.5Z" fill="#00A95F" fill-opacity="0.4"/>
<path fill-rule="evenodd" clip-rule="evenodd" d="M16.5557 14.5C16.5557 13.9784 16.9785 13.5555 17.5001 13.5555H20.5001C21.0217 13.5555 21.4446 13.9784 21.4446 14.5C21.4446 15.0216 21.0217 15.4444 20.5001 15.4444H17.5001C16.9785 15.4444 16.5557 15.0216 16.5557 14.5Z" fill="#00A95F" fill-opacity="0.4"/>
<path fill-rule="evenodd" clip-rule="evenodd" d="M16.5557 18.5C16.5557 17.9784 16.9785 17.5555 17.5001 17.5555H20.5001C21.0217 17.5555 21.4446 17.9784 21.4446 18.5C21.4446 19.0216 21.0217 19.4444 20.5001 19.4444H17.5001C16.9785 19.4444 16.5557 19.0216 16.5557 18.5Z" fill="#00A95F" fill-opacity="0.4"/>
<path fill-rule="evenodd" clip-rule="evenodd" d="M16.5557 22.5C16.5557 21.9784 16.9785 21.5555 17.5001 21.5555H20.5001C21.0217 21.5555 21.4446 21.9784 21.4446 22.5C21.4446 23.0216 21.0217 23.4444 20.5001 23.4444H17.5001C16.9785 23.4444 16.5557 23.0216 16.5557 22.5Z" fill="#00A95F" fill-opacity="0.4"/>
<path fill-rule="evenodd" clip-rule="evenodd" d="M16.5557 26.5C16.5557 25.9784 16.9785 25.5555 17.5001 25.5555H20.5001C21.0217 25.5555 21.4446 25.9784 21.4446 26.5C21.4446 27.0216 21.0217 27.4444 20.5001 27.4444H17.5001C16.9785 27.4444 16.5557 27.0216 16.5557 26.5Z" fill="#00A95F" fill-opacity="0.4"/>
<path fill-rule="evenodd" clip-rule="evenodd" d="M23.5557 6.49999C23.5557 5.97838 23.9785 5.55554 24.5001 5.55554H27.5001C28.0217 5.55554 28.4446 5.97838 28.4446 6.49999C28.4446 7.02159 28.0217 7.44443 27.5001 7.44443H24.5001C23.9785 7.44443 23.5557 7.02159 23.5557 6.49999Z" fill="#00A95F"/>
<path fill-rule="evenodd" clip-rule="evenodd" d="M23.5557 10.5C23.5557 9.97838 23.9785 9.55554 24.5001 9.55554H27.5001C28.0217 9.55554 28.4446 9.97838 28.4446 10.5C28.4446 11.0216 28.0217 11.4444 27.5001 11.4444H24.5001C23.9785 11.4444 23.5557 11.0216 23.5557 10.5Z" fill="#00A95F" fill-opacity="0.4"/>
<path fill-rule="evenodd" clip-rule="evenodd" d="M23.5557 14.5C23.5557 13.9784 23.9785 13.5555 24.5001 13.5555H27.5001C28.0217 13.5555 28.4446 13.9784 28.4446 14.5C28.4446 15.0216 28.0217 15.4444 27.5001 15.4444H24.5001C23.9785 15.4444 23.5557 15.0216 23.5557 14.5Z" fill="#00A95F" fill-opacity="0.4"/>
<path fill-rule="evenodd" clip-rule="evenodd" d="M23.5557 18.5C23.5557 17.9784 23.9785 17.5555 24.5001 17.5555H27.5001C28.0217 17.5555 28.4446 17.9784 28.4446 18.5C28.4446 19.0216 28.0217 19.4444 27.5001 19.4444H24.5001C23.9785 19.4444 23.5557 19.0216 23.5557 18.5Z" fill="#00A95F" fill-opacity="0.4"/>
<path fill-rule="evenodd" clip-rule="evenodd" d="M23.5557 22.5C23.5557 21.9784 23.9785 21.5555 24.5001 21.5555H27.5001C28.0217 21.5555 28.4446 21.9784 28.4446 22.5C28.4446 23.0216 28.0217 23.4444 27.5001 23.4444H24.5001C23.9785 23.4444 23.5557 23.0216 23.5557 22.5Z" fill="#00A95F" fill-opacity="0.4"/>
<path fill-rule="evenodd" clip-rule="evenodd" d="M23.5557 26.5C23.5557 25.9784 23.9785 25.5555 24.5001 25.5555H27.5001C28.0217 25.5555 28.4446 25.9784 28.4446 26.5C28.4446 27.0216 28.0217 27.4444 27.5001 27.4444H24.5001C23.9785 27.4444 23.5557 27.0216 23.5557 26.5Z" fill="#00A95F" fill-opacity="0.4"/>
<g filter="url(#filter1_d_2456_1581)">
<rect x="2.5" y="16.5" width="16" height="16" rx="4" fill="#00A95F"/>
<path d="M8.036 29.2391H5.78027L9.11714 24.4073L6.00718 19.8959H8.24956L10.4385 23.0459L12.6275 19.8959H14.8966L11.7599 24.4073L15.1102 29.2391H12.8544L10.4385 25.7688L8.036 29.2391Z" fill="white"/>
</g>
</g>
<defs>
<filter id="filter0_d_2456_1581" x="0.5" y="0.5" width="36" height="36" filterUnits="userSpaceOnUse" color-interpolation-filters="sRGB">
<feFlood flood-opacity="0" result="BackgroundImageFix"/>
<feColorMatrix in="SourceAlpha" type="matrix" values="0 0 0 0 0 0 0 0 0 0 0 0 0 0 0 0 0 0 127 0" result="hardAlpha"/>
<feOffset dy="2"/>
<feGaussianBlur stdDeviation="1"/>
<feComposite in2="hardAlpha" operator="out"/>
<feColorMatrix type="matrix" values="0 0 0 0 0 0 0 0 0 0 0 0 0 0 0 0 0 0 0.06 0"/>
<feBlend mode="normal" in2="BackgroundImageFix" result="effect1_dropShadow_2456_1581"/>
<feBlend mode="normal" in="SourceGraphic" in2="effect1_dropShadow_2456_1581" result="shape"/>
</filter>
<filter id="filter1_d_2456_1581" x="2.5" y="14.5" width="18" height="18" filterUnits="userSpaceOnUse" color-interpolation-filters="sRGB">
<feFlood flood-opacity="0" result="BackgroundImageFix"/>
<feColorMatrix in="SourceAlpha" type="matrix" values="0 0 0 0 0 0 0 0 0 0 0 0 0 0 0 0 0 0 127 0" result="hardAlpha"/>
<feOffset dx="1" dy="-1"/>
<feGaussianBlur stdDeviation="0.5"/>
<feComposite in2="hardAlpha" operator="out"/>
<feColorMatrix type="matrix" values="0 0 0 0 0 0 0 0 0 0 0 0 0 0 0 0 0 0 0.04 0"/>
<feBlend mode="normal" in2="BackgroundImageFix" result="effect1_dropShadow_2456_1581"/>
<feBlend mode="normal" in="SourceGraphic" in2="effect1_dropShadow_2456_1581" result="shape"/>
</filter>
</defs>
</svg>
