<svg width="33" height="33" viewBox="0 0 33 33" fill="none" xmlns="http://www.w3.org/2000/svg">
<g filter="url(#filter0_d_3239_3207)">
<rect x="2.85" y="5.85" width="26.3" height="21.3" rx="3.42778" fill="#FAFAFA"/>
<rect x="2.85" y="5.85" width="26.3" height="21.3" rx="3.42778" fill="url(#paint0_linear_3239_3207)"/>
<rect x="2.85" y="5.85" width="26.3" height="21.3" rx="3.42778" fill="url(#paint1_linear_3239_3207)" fill-opacity="0.04"/>
<rect x="2.85" y="5.85" width="26.3" height="21.3" rx="3.42778" stroke="#CECECE" stroke-width="0.7"/>
<rect x="2.85" y="5.85" width="26.3" height="21.3" rx="3.42778" stroke="url(#paint2_linear_3239_3207)" stroke-opacity="0.5" stroke-width="0.7"/>
<rect x="2.85" y="5.85" width="26.3" height="21.3" rx="3.42778" stroke="url(#paint3_linear_3239_3207)" stroke-opacity="0.2" stroke-width="0.7"/>
<path d="M13.2866 19.2658V13.7304C13.2866 13.487 13.3513 13.3043 13.4806 13.1826C13.61 13.0609 13.7647 13 13.9448 13C14.102 13 14.2567 13.0431 14.4089 13.1293L19.0122 15.8152C19.1872 15.9167 19.3178 16.0194 19.404 16.1234C19.4902 16.2248 19.5334 16.3504 19.5334 16.5C19.5334 16.6446 19.4902 16.7701 19.404 16.8766C19.3178 16.9806 19.1872 17.0821 19.0122 17.181L14.4089 19.8668C14.2567 19.9556 14.102 20 13.9448 20C13.7647 20 13.61 19.9379 13.4806 19.8136C13.3513 19.6918 13.2866 19.5092 13.2866 19.2658Z" fill="#CECECE"/>
<path d="M13.2866 19.2658V13.7304C13.2866 13.487 13.3513 13.3043 13.4806 13.1826C13.61 13.0609 13.7647 13 13.9448 13C14.102 13 14.2567 13.0431 14.4089 13.1293L19.0122 15.8152C19.1872 15.9167 19.3178 16.0194 19.404 16.1234C19.4902 16.2248 19.5334 16.3504 19.5334 16.5C19.5334 16.6446 19.4902 16.7701 19.404 16.8766C19.3178 16.9806 19.1872 17.0821 19.0122 17.181L14.4089 19.8668C14.2567 19.9556 14.102 20 13.9448 20C13.7647 20 13.61 19.9379 13.4806 19.8136C13.3513 19.6918 13.2866 19.5092 13.2866 19.2658Z" fill="url(#paint4_linear_3239_3207)" fill-opacity="0.77"/>
<g opacity="0.52">
<path fill-rule="evenodd" clip-rule="evenodd" d="M5 8.86977C5 8.38941 5.38941 8 5.86977 8H7.71165C8.19201 8 8.58142 8.38941 8.58142 8.86977C8.58142 9.35014 8.19201 9.73955 7.71165 9.73955H5.86977C5.38941 9.73955 5 9.35014 5 8.86977Z" fill="#CECECE"/>
<path fill-rule="evenodd" clip-rule="evenodd" d="M5 8.86977C5 8.38941 5.38941 8 5.86977 8H7.71165C8.19201 8 8.58142 8.38941 8.58142 8.86977C8.58142 9.35014 8.19201 9.73955 7.71165 9.73955H5.86977C5.38941 9.73955 5 9.35014 5 8.86977Z" fill="#6A6AF4" fill-opacity="0.18"/>
<path fill-rule="evenodd" clip-rule="evenodd" d="M9.60449 8.86977C9.60449 8.38941 9.9939 8 10.4743 8H12.3161C12.7965 8 13.1859 8.38941 13.1859 8.86977C13.1859 9.35014 12.7965 9.73955 12.3161 9.73955H10.4743C9.9939 9.73955 9.60449 9.35014 9.60449 8.86977Z" fill="#CECECE"/>
<path fill-rule="evenodd" clip-rule="evenodd" d="M9.60449 8.86977C9.60449 8.38941 9.9939 8 10.4743 8H12.3161C12.7965 8 13.1859 8.38941 13.1859 8.86977C13.1859 9.35014 12.7965 9.73955 12.3161 9.73955H10.4743C9.9939 9.73955 9.60449 9.35014 9.60449 8.86977Z" fill="#6A6AF4" fill-opacity="0.18"/>
<path fill-rule="evenodd" clip-rule="evenodd" d="M14.2095 8.86977C14.2095 8.38941 14.5989 8 15.0792 8H16.9211C17.4015 8 17.7909 8.38941 17.7909 8.86977C17.7909 9.35014 17.4015 9.73955 16.9211 9.73955H15.0792C14.5989 9.73955 14.2095 9.35014 14.2095 8.86977Z" fill="#CECECE"/>
<path fill-rule="evenodd" clip-rule="evenodd" d="M14.2095 8.86977C14.2095 8.38941 14.5989 8 15.0792 8H16.9211C17.4015 8 17.7909 8.38941 17.7909 8.86977C17.7909 9.35014 17.4015 9.73955 16.9211 9.73955H15.0792C14.5989 9.73955 14.2095 9.35014 14.2095 8.86977Z" fill="#6A6AF4" fill-opacity="0.18"/>
<path fill-rule="evenodd" clip-rule="evenodd" d="M18.814 8.86977C18.814 8.38941 19.2034 8 19.6837 8H21.5256C22.006 8 22.3954 8.38941 22.3954 8.86977C22.3954 9.35014 22.006 9.73955 21.5256 9.73955H19.6837C19.2034 9.73955 18.814 9.35014 18.814 8.86977Z" fill="#CECECE"/>
<path fill-rule="evenodd" clip-rule="evenodd" d="M18.814 8.86977C18.814 8.38941 19.2034 8 19.6837 8H21.5256C22.006 8 22.3954 8.38941 22.3954 8.86977C22.3954 9.35014 22.006 9.73955 21.5256 9.73955H19.6837C19.2034 9.73955 18.814 9.35014 18.814 8.86977Z" fill="#6A6AF4" fill-opacity="0.18"/>
<path fill-rule="evenodd" clip-rule="evenodd" d="M23.4185 8.86977C23.4185 8.38941 23.8079 8 24.2882 8H26.1301C26.6105 8 26.9999 8.38941 26.9999 8.86977C26.9999 9.35014 26.6105 9.73955 26.1301 9.73955H24.2882C23.8079 9.73955 23.4185 9.35014 23.4185 8.86977Z" fill="#CECECE"/>
<path fill-rule="evenodd" clip-rule="evenodd" d="M23.4185 8.86977C23.4185 8.38941 23.8079 8 24.2882 8H26.1301C26.6105 8 26.9999 8.38941 26.9999 8.86977C26.9999 9.35014 26.6105 9.73955 26.1301 9.73955H24.2882C23.8079 9.73955 23.4185 9.35014 23.4185 8.86977Z" fill="#6A6AF4" fill-opacity="0.18"/>
</g>
<g opacity="0.38">
<path fill-rule="evenodd" clip-rule="evenodd" d="M5 24.1298C5 23.6494 5.38941 23.26 5.86977 23.26H7.71165C8.19201 23.26 8.58142 23.6494 8.58142 24.1298C8.58142 24.6101 8.19201 24.9996 7.71165 24.9996H5.86977C5.38941 24.9996 5 24.6101 5 24.1298Z" fill="#CECECE"/>
<path fill-rule="evenodd" clip-rule="evenodd" d="M5 24.1298C5 23.6494 5.38941 23.26 5.86977 23.26H7.71165C8.19201 23.26 8.58142 23.6494 8.58142 24.1298C8.58142 24.6101 8.19201 24.9996 7.71165 24.9996H5.86977C5.38941 24.9996 5 24.6101 5 24.1298Z" fill="#6A6AF4" fill-opacity="0.44"/>
<path fill-rule="evenodd" clip-rule="evenodd" d="M9.60449 24.1298C9.60449 23.6494 9.9939 23.26 10.4743 23.26H12.3161C12.7965 23.26 13.1859 23.6494 13.1859 24.1298C13.1859 24.6101 12.7965 24.9996 12.3161 24.9996H10.4743C9.9939 24.9996 9.60449 24.6101 9.60449 24.1298Z" fill="#CECECE"/>
<path fill-rule="evenodd" clip-rule="evenodd" d="M9.60449 24.1298C9.60449 23.6494 9.9939 23.26 10.4743 23.26H12.3161C12.7965 23.26 13.1859 23.6494 13.1859 24.1298C13.1859 24.6101 12.7965 24.9996 12.3161 24.9996H10.4743C9.9939 24.9996 9.60449 24.6101 9.60449 24.1298Z" fill="#6A6AF4" fill-opacity="0.44"/>
<path fill-rule="evenodd" clip-rule="evenodd" d="M14.2095 24.1298C14.2095 23.6494 14.5989 23.26 15.0792 23.26H16.9211C17.4015 23.26 17.7909 23.6494 17.7909 24.1298C17.7909 24.6101 17.4015 24.9996 16.9211 24.9996H15.0792C14.5989 24.9996 14.2095 24.6101 14.2095 24.1298Z" fill="#CECECE"/>
<path fill-rule="evenodd" clip-rule="evenodd" d="M14.2095 24.1298C14.2095 23.6494 14.5989 23.26 15.0792 23.26H16.9211C17.4015 23.26 17.7909 23.6494 17.7909 24.1298C17.7909 24.6101 17.4015 24.9996 16.9211 24.9996H15.0792C14.5989 24.9996 14.2095 24.6101 14.2095 24.1298Z" fill="#6A6AF4" fill-opacity="0.44"/>
<path fill-rule="evenodd" clip-rule="evenodd" d="M18.814 24.1298C18.814 23.6494 19.2034 23.26 19.6837 23.26H21.5256C22.006 23.26 22.3954 23.6494 22.3954 24.1298C22.3954 24.6101 22.006 24.9996 21.5256 24.9996H19.6837C19.2034 24.9996 18.814 24.6101 18.814 24.1298Z" fill="#CECECE"/>
<path fill-rule="evenodd" clip-rule="evenodd" d="M18.814 24.1298C18.814 23.6494 19.2034 23.26 19.6837 23.26H21.5256C22.006 23.26 22.3954 23.6494 22.3954 24.1298C22.3954 24.6101 22.006 24.9996 21.5256 24.9996H19.6837C19.2034 24.9996 18.814 24.6101 18.814 24.1298Z" fill="#6A6AF4" fill-opacity="0.44"/>
<path fill-rule="evenodd" clip-rule="evenodd" d="M23.4185 24.1298C23.4185 23.6494 23.8079 23.26 24.2882 23.26H26.1301C26.6105 23.26 26.9999 23.6494 26.9999 24.1298C26.9999 24.6101 26.6105 24.9996 26.1301 24.9996H24.2882C23.8079 24.9996 23.4185 24.6101 23.4185 24.1298Z" fill="#CECECE"/>
<path fill-rule="evenodd" clip-rule="evenodd" d="M23.4185 24.1298C23.4185 23.6494 23.8079 23.26 24.2882 23.26H26.1301C26.6105 23.26 26.9999 23.6494 26.9999 24.1298C26.9999 24.6101 26.6105 24.9996 26.1301 24.9996H24.2882C23.8079 24.9996 23.4185 24.6101 23.4185 24.1298Z" fill="#6A6AF4" fill-opacity="0.44"/>
</g>
</g>
<defs>
<filter id="filter0_d_3239_3207" x="-1.5" y="0.5" width="36" height="36" filterUnits="userSpaceOnUse" color-interpolation-filters="sRGB">
<feFlood flood-opacity="0" result="BackgroundImageFix"/>
<feColorMatrix in="SourceAlpha" type="matrix" values="0 0 0 0 0 0 0 0 0 0 0 0 0 0 0 0 0 0 127 0" result="hardAlpha"/>
<feOffset dy="2"/>
<feGaussianBlur stdDeviation="1"/>
<feComposite in2="hardAlpha" operator="out"/>
<feColorMatrix type="matrix" values="0 0 0 0 0 0 0 0 0 0 0 0 0 0 0 0 0 0 0.06 0"/>
<feBlend mode="normal" in2="BackgroundImageFix" result="effect1_dropShadow_3239_3207"/>
<feBlend mode="normal" in="SourceGraphic" in2="effect1_dropShadow_3239_3207" result="shape"/>
</filter>
<linearGradient id="paint0_linear_3239_3207" x1="16" y1="5.5" x2="26" y2="23.5" gradientUnits="userSpaceOnUse">
<stop stop-color="white" stop-opacity="0"/>
<stop offset="1" stop-color="white"/>
</linearGradient>
<linearGradient id="paint1_linear_3239_3207" x1="9.75363" y1="1.56622" x2="15.1333" y2="29.9727" gradientUnits="userSpaceOnUse">
<stop stop-color="#6A6AF4"/>
<stop offset="1" stop-color="#6A6AF4"/>
</linearGradient>
<linearGradient id="paint2_linear_3239_3207" x1="10" y1="-1" x2="18.5564" y2="36.5113" gradientUnits="userSpaceOnUse">
<stop stop-color="#6A6AF4" stop-opacity="0"/>
<stop offset="1" stop-color="#6A6AF4"/>
</linearGradient>
<linearGradient id="paint3_linear_3239_3207" x1="16" y1="5.5" x2="16" y2="27.5" gradientUnits="userSpaceOnUse">
<stop stop-color="white" stop-opacity="0"/>
<stop offset="1" stop-color="white"/>
</linearGradient>
<linearGradient id="paint4_linear_3239_3207" x1="13" y1="9.5" x2="17.459" y2="24.5122" gradientUnits="userSpaceOnUse">
<stop stop-color="#6A6AF4" stop-opacity="0"/>
<stop offset="1" stop-color="#6A6AF4"/>
</linearGradient>
</defs>
</svg>
