<svg width="32" height="32" viewBox="0 0 33 33" fill="none" xmlns="http://www.w3.org/2000/svg">
<g filter="url(#filter0_d_2456_1520)">
<g clip-path="url(#clip0_2456_1520)">
<rect x="3" y="6" width="27" height="22" rx="3.77778" fill="#F5F5F5"/>
<rect x="3" y="6" width="27" height="22" rx="3.77778" fill="url(#paint0_linear_2456_1520)"/>
<rect x="3" y="6" width="27" height="22" rx="3.77778" fill="url(#paint1_linear_2456_1520)" fill-opacity="0.2"/>
<path d="M30.7114 24.503C30.7114 25.5434 30.4491 26.3559 29.9247 26.9405C29.4088 27.5338 28.592 27.8304 27.4743 27.8304H5.13691C4.20834 27.8304 3.5248 27.5725 3.08631 27.0566C2.65642 26.5493 2.39848 25.754 2.3125 24.6707L7.18751 20.1955C7.44545 19.9461 7.70769 19.7613 7.97422 19.6409C8.24935 19.5205 8.54168 19.4603 8.85121 19.4603C9.16933 19.4603 9.47026 19.5248 9.75399 19.6538C10.0463 19.7828 10.33 19.9676 10.6052 20.2084L13.0298 22.4395L18.8979 17.1905C19.2074 16.924 19.5212 16.7219 19.8393 16.5843C20.1575 16.4468 20.4971 16.378 20.8582 16.378C21.2365 16.378 21.589 16.4511 21.9157 16.5972C22.251 16.7348 22.5692 16.9412 22.8701 17.2163L30.7114 24.503Z" fill="#CECECE"/>
<path d="M30.7114 24.503C30.7114 25.5434 30.4491 26.3559 29.9247 26.9405C29.4088 27.5338 28.592 27.8304 27.4743 27.8304H5.13691C4.20834 27.8304 3.5248 27.5725 3.08631 27.0566C2.65642 26.5493 2.39848 25.754 2.3125 24.6707L7.18751 20.1955C7.44545 19.9461 7.70769 19.7613 7.97422 19.6409C8.24935 19.5205 8.54168 19.4603 8.85121 19.4603C9.16933 19.4603 9.47026 19.5248 9.75399 19.6538C10.0463 19.7828 10.33 19.9676 10.6052 20.2084L13.0298 22.4395L18.8979 17.1905C19.2074 16.924 19.5212 16.7219 19.8393 16.5843C20.1575 16.4468 20.4971 16.378 20.8582 16.378C21.2365 16.378 21.589 16.4511 21.9157 16.5972C22.251 16.7348 22.5692 16.9412 22.8701 17.2163L30.7114 24.503Z" fill="url(#paint2_linear_2456_1520)" fill-opacity="0.2"/>
<path d="M30.7114 24.503C30.7114 25.5434 30.4491 26.3559 29.9247 26.9405C29.4088 27.5338 28.592 27.8304 27.4743 27.8304H5.13691C4.20834 27.8304 3.5248 27.5725 3.08631 27.0566C2.65642 26.5493 2.39848 25.754 2.3125 24.6707L7.18751 20.1955C7.44545 19.9461 7.70769 19.7613 7.97422 19.6409C8.24935 19.5205 8.54168 19.4603 8.85121 19.4603C9.16933 19.4603 9.47026 19.5248 9.75399 19.6538C10.0463 19.7828 10.33 19.9676 10.6052 20.2084L13.0298 22.4395L18.8979 17.1905C19.2074 16.924 19.5212 16.7219 19.8393 16.5843C20.1575 16.4468 20.4971 16.378 20.8582 16.378C21.2365 16.378 21.589 16.4511 21.9157 16.5972C22.251 16.7348 22.5692 16.9412 22.8701 17.2163L30.7114 24.503Z" fill="url(#paint3_linear_2456_1520)" fill-opacity="0.1"/>
<path d="M30.7114 24.503C30.7114 25.5434 30.4491 26.3559 29.9247 26.9405C29.4088 27.5338 28.592 27.8304 27.4743 27.8304H5.13691C4.20834 27.8304 3.5248 27.5725 3.08631 27.0566C2.65642 26.5493 2.39848 25.754 2.3125 24.6707L7.18751 20.1955C7.44545 19.9461 7.70769 19.7613 7.97422 19.6409C8.24935 19.5205 8.54168 19.4603 8.85121 19.4603C9.16933 19.4603 9.47026 19.5248 9.75399 19.6538C10.0463 19.7828 10.33 19.9676 10.6052 20.2084L13.0298 22.4395L18.8979 17.1905C19.2074 16.924 19.5212 16.7219 19.8393 16.5843C20.1575 16.4468 20.4971 16.378 20.8582 16.378C21.2365 16.378 21.589 16.4511 21.9157 16.5972C22.251 16.7348 22.5692 16.9412 22.8701 17.2163L30.7114 24.503Z" fill="url(#paint4_linear_2456_1520)" fill-opacity="0.3"/>
<path d="M9.43178 16.6875C9.89607 16.9541 10.4076 17.0873 10.9665 17.0873C11.5254 17.0873 12.0327 16.9541 12.4883 16.6875C12.944 16.4124 13.3094 16.0427 13.5846 15.5784C13.8597 15.1141 13.9973 14.6025 13.9973 14.0437C13.9973 13.4934 13.8597 12.9861 13.5846 12.5218C13.3094 12.0575 12.944 11.6878 12.4883 11.4127C12.0327 11.1376 11.5254 11 10.9665 11C10.4076 11 9.89607 11.1376 9.43178 11.4127C8.97609 11.6878 8.61068 12.0575 8.33555 12.5218C8.06042 12.9861 7.92285 13.4934 7.92285 14.0437C7.92285 14.6025 8.06042 15.1141 8.33555 15.5784C8.61068 16.0427 8.97609 16.4124 9.43178 16.6875Z" fill="#CECECE"/>
<path d="M9.43178 16.6875C9.89607 16.9541 10.4076 17.0873 10.9665 17.0873C11.5254 17.0873 12.0327 16.9541 12.4883 16.6875C12.944 16.4124 13.3094 16.0427 13.5846 15.5784C13.8597 15.1141 13.9973 14.6025 13.9973 14.0437C13.9973 13.4934 13.8597 12.9861 13.5846 12.5218C13.3094 12.0575 12.944 11.6878 12.4883 11.4127C12.0327 11.1376 11.5254 11 10.9665 11C10.4076 11 9.89607 11.1376 9.43178 11.4127C8.97609 11.6878 8.61068 12.0575 8.33555 12.5218C8.06042 12.9861 7.92285 13.4934 7.92285 14.0437C7.92285 14.6025 8.06042 15.1141 8.33555 15.5784C8.61068 16.0427 8.97609 16.4124 9.43178 16.6875Z" fill="url(#paint5_linear_2456_1520)" fill-opacity="0.2"/>
<path d="M9.43178 16.6875C9.89607 16.9541 10.4076 17.0873 10.9665 17.0873C11.5254 17.0873 12.0327 16.9541 12.4883 16.6875C12.944 16.4124 13.3094 16.0427 13.5846 15.5784C13.8597 15.1141 13.9973 14.6025 13.9973 14.0437C13.9973 13.4934 13.8597 12.9861 13.5846 12.5218C13.3094 12.0575 12.944 11.6878 12.4883 11.4127C12.0327 11.1376 11.5254 11 10.9665 11C10.4076 11 9.89607 11.1376 9.43178 11.4127C8.97609 11.6878 8.61068 12.0575 8.33555 12.5218C8.06042 12.9861 7.92285 13.4934 7.92285 14.0437C7.92285 14.6025 8.06042 15.1141 8.33555 15.5784C8.61068 16.0427 8.97609 16.4124 9.43178 16.6875Z" fill="url(#paint6_linear_2456_1520)" fill-opacity="0.1"/>
<path d="M9.43178 16.6875C9.89607 16.9541 10.4076 17.0873 10.9665 17.0873C11.5254 17.0873 12.0327 16.9541 12.4883 16.6875C12.944 16.4124 13.3094 16.0427 13.5846 15.5784C13.8597 15.1141 13.9973 14.6025 13.9973 14.0437C13.9973 13.4934 13.8597 12.9861 13.5846 12.5218C13.3094 12.0575 12.944 11.6878 12.4883 11.4127C12.0327 11.1376 11.5254 11 10.9665 11C10.4076 11 9.89607 11.1376 9.43178 11.4127C8.97609 11.6878 8.61068 12.0575 8.33555 12.5218C8.06042 12.9861 7.92285 13.4934 7.92285 14.0437C7.92285 14.6025 8.06042 15.1141 8.33555 15.5784C8.61068 16.0427 8.97609 16.4124 9.43178 16.6875Z" fill="url(#paint7_linear_2456_1520)" fill-opacity="0.4"/>
</g>
<rect x="3.35" y="6.35" width="26.3" height="21.3" rx="3.42778" stroke="#CECECE" stroke-width="0.7"/>
<rect x="3.35" y="6.35" width="26.3" height="21.3" rx="3.42778" stroke="url(#paint8_linear_2456_1520)" stroke-opacity="0.2" stroke-width="0.7"/>
<rect x="3.35" y="6.35" width="26.3" height="21.3" rx="3.42778" stroke="url(#paint9_linear_2456_1520)" stroke-width="0.7"/>
</g>
<defs>
<filter id="filter0_d_2456_1520" x="-1.5" y="0.5" width="36" height="36" filterUnits="userSpaceOnUse" color-interpolation-filters="sRGB">
<feFlood flood-opacity="0" result="BackgroundImageFix"/>
<feColorMatrix in="SourceAlpha" type="matrix" values="0 0 0 0 0 0 0 0 0 0 0 0 0 0 0 0 0 0 127 0" result="hardAlpha"/>
<feOffset dy="2"/>
<feGaussianBlur stdDeviation="1"/>
<feComposite in2="hardAlpha" operator="out"/>
<feColorMatrix type="matrix" values="0 0 0 0 0 0 0 0 0 0 0 0 0 0 0 0 0 0 0.06 0"/>
<feBlend mode="normal" in2="BackgroundImageFix" result="effect1_dropShadow_2456_1520"/>
<feBlend mode="normal" in="SourceGraphic" in2="effect1_dropShadow_2456_1520" result="shape"/>
</filter>
<linearGradient id="paint0_linear_2456_1520" x1="14.5" y1="7" x2="18" y2="21.5" gradientUnits="userSpaceOnUse">
<stop stop-color="white" stop-opacity="0"/>
<stop offset="1" stop-color="white"/>
</linearGradient>
<linearGradient id="paint1_linear_2456_1520" x1="11" y1="3.5" x2="16.5" y2="28" gradientUnits="userSpaceOnUse">
<stop stop-color="#7AB1E8"/>
<stop offset="1" stop-color="#7AB1E8" stop-opacity="0"/>
</linearGradient>
<linearGradient id="paint2_linear_2456_1520" x1="16.5119" y1="11" x2="16.5" y2="28" gradientUnits="userSpaceOnUse">
<stop stop-color="white" stop-opacity="0"/>
<stop offset="1" stop-color="white"/>
</linearGradient>
<linearGradient id="paint3_linear_2456_1520" x1="10.5" y1="24.5" x2="6.5" y2="2" gradientUnits="userSpaceOnUse">
<stop stop-opacity="0"/>
<stop offset="1"/>
</linearGradient>
<linearGradient id="paint4_linear_2456_1520" x1="14" y1="13" x2="21" y2="35.5" gradientUnits="userSpaceOnUse">
<stop stop-color="#00A95F"/>
<stop offset="1" stop-color="#00A95F" stop-opacity="0"/>
</linearGradient>
<linearGradient id="paint5_linear_2456_1520" x1="10.9601" y1="8.14143" x2="10.9443" y2="17.1774" gradientUnits="userSpaceOnUse">
<stop stop-color="white" stop-opacity="0"/>
<stop offset="1" stop-color="white"/>
</linearGradient>
<linearGradient id="paint6_linear_2456_1520" x1="9.67413" y1="15.3171" x2="5.11377" y2="4.99433" gradientUnits="userSpaceOnUse">
<stop stop-opacity="0"/>
<stop offset="1"/>
</linearGradient>
<linearGradient id="paint7_linear_2456_1520" x1="16.5" y1="21.5" x2="9.5" y2="9.5" gradientUnits="userSpaceOnUse">
<stop stop-color="#E4794A" stop-opacity="0"/>
<stop offset="1" stop-color="#E4794A"/>
</linearGradient>
<linearGradient id="paint8_linear_2456_1520" x1="16.5" y1="6" x2="16.5" y2="28" gradientUnits="userSpaceOnUse">
<stop stop-color="white" stop-opacity="0"/>
<stop offset="1" stop-color="white"/>
</linearGradient>
<linearGradient id="paint9_linear_2456_1520" x1="16.5" y1="6" x2="16.5" y2="28" gradientUnits="userSpaceOnUse">
<stop stop-color="#ABC2DB"/>
<stop offset="1" stop-color="#AEC7BC"/>
</linearGradient>
<clipPath id="clip0_2456_1520">
<rect x="3" y="6" width="27" height="22" rx="3.77778" fill="white"/>
</clipPath>
</defs>
</svg>
