<svg width="118" height="33" viewBox="0 0 118 33" fill="none" xmlns="http://www.w3.org/2000/svg">
<path d="M27.6765 10.2263H8.41971C6.23248 10.2263 4.03303 11.9473 3.50711 14.0704L2 20.1543V8.34882C2 7.07794 2.29141 6.12077 2.87422 5.47729C3.46451 4.82576 4.28269 4.5 5.32877 4.5H8.50063C8.88917 4.5 9.22541 4.52815 9.50935 4.58446C9.79328 4.64076 10.0548 4.73728 10.2939 4.87402C10.533 5.00272 10.7833 5.1837 11.0448 5.41696L11.6837 5.98403C11.9975 6.24946 12.2927 6.43848 12.5691 6.55109C12.8456 6.6637 13.1856 6.72001 13.5891 6.72001H24.0125C25.2155 6.72001 26.1271 7.05381 26.7472 7.72142C27.3035 8.31312 27.6133 9.14807 27.6765 10.2263Z" fill="#C9191E"/>
<path d="M5.67656 27.5C4.46609 27.5 3.6366 27.1536 3.18806 26.4607C2.73746 25.7761 2.6776 24.766 3.00848 23.4303L5.32709 14.0705C5.61138 12.9229 6.80027 11.9926 7.98256 11.9926H29.3898C30.5721 11.9926 31.3001 12.9229 31.0158 14.0705L28.6972 23.4303C28.3663 24.766 27.8172 25.7761 27.0499 26.4607C26.2805 27.1536 25.3615 27.5 24.293 27.5H5.67656Z" fill="#000091"/>
<path d="M38.266 24.5V9.1H47.242V11.696H41.39V15.348H46.362V17.944H41.39V24.5H38.266ZM51.0253 11.476C50.0353 11.476 49.1993 10.64 49.1993 9.65C49.1993 8.66 50.0353 7.824 51.0253 7.824C52.0153 7.824 52.8293 8.66 52.8293 9.65C52.8293 10.64 52.0153 11.476 51.0253 11.476ZM49.6173 24.5V13.412H52.4113V24.5H49.6173ZM61.0858 22.3C62.1858 22.3 63.0658 21.794 63.5938 21.024L65.7718 22.696C64.7378 24.06 63.1098 24.94 61.0858 24.94C57.2578 24.94 54.9698 22.19 54.9698 18.956C54.9698 15.722 57.2578 12.972 61.0858 12.972C63.1098 12.972 64.7378 13.852 65.7718 15.216L63.5938 16.888C63.0658 16.118 62.1858 15.612 61.0418 15.612C59.2158 15.612 57.8738 17.02 57.8738 18.956C57.8738 20.914 59.2158 22.3 61.0858 22.3ZM67.8575 24.5V8H70.6515V14.292C71.4215 13.544 72.4555 12.972 73.9295 12.972C76.3275 12.972 78.2415 14.622 78.2415 17.9V24.5H75.4255V18.01C75.4255 16.536 74.6115 15.612 73.2255 15.612C71.8175 15.612 71.0695 16.558 70.6515 17.262V24.5H67.8575ZM82.8222 11.476C81.8322 11.476 80.9962 10.64 80.9962 9.65C80.9962 8.66 81.8322 7.824 82.8222 7.824C83.8122 7.824 84.6262 8.66 84.6262 9.65C84.6262 10.64 83.8122 11.476 82.8222 11.476ZM81.4142 24.5V13.412H84.2082V24.5H81.4142ZM97.7667 22.696C96.7327 24.082 95.0167 24.94 92.9267 24.94C88.9887 24.94 86.7667 22.19 86.7667 18.956C86.7667 15.678 88.8347 12.972 92.4647 12.972C95.5447 12.972 97.5687 15.062 97.5687 17.966C97.5687 18.582 97.4807 19.154 97.3927 19.528H89.6267C89.8907 21.596 91.1667 22.432 92.9047 22.432C94.1147 22.432 95.1707 21.904 95.7647 21.112L97.7667 22.696ZM92.3987 15.26C90.9687 15.26 90.0227 16.052 89.7147 17.504H94.8187C94.7747 16.382 93.9607 15.26 92.3987 15.26ZM100.299 24.5V13.412H103.093V14.512C103.819 13.764 104.765 13.192 106.019 13.192C106.393 13.192 106.723 13.258 106.987 13.346V16.096C106.635 16.008 106.261 15.942 105.755 15.942C104.391 15.942 103.511 16.69 103.093 17.394V24.5H100.299ZM108.268 22.894L110.116 21.222C110.798 22.08 111.612 22.696 112.668 22.696C113.57 22.696 114.032 22.168 114.032 21.508C114.032 19.572 108.73 20.298 108.73 16.404C108.73 14.446 110.38 12.972 112.69 12.972C114.384 12.972 115.924 13.786 116.716 14.864L114.868 16.492C114.296 15.788 113.57 15.216 112.712 15.216C111.832 15.216 111.414 15.7 111.414 16.272C111.414 18.164 116.716 17.504 116.716 21.332C116.672 23.664 114.802 24.94 112.712 24.94C110.732 24.94 109.324 24.148 108.268 22.894Z" fill="#000091"/>
</svg>
