<svg width="166" height="33" viewBox="0 0 166 33" fill="none" xmlns="http://www.w3.org/2000/svg">
<path d="M27.6765 9.97627H8.41971C6.23248 9.97627 4.03303 11.6973 3.50711 13.8204L2 19.9043V8.09882C2 6.82794 2.29141 5.87077 2.87422 5.22729C3.46451 4.57576 4.28269 4.25 5.32877 4.25H8.50063C8.88917 4.25 9.22541 4.27815 9.50935 4.33446C9.79328 4.39076 10.0548 4.48728 10.2939 4.62402C10.533 4.75272 10.7833 4.9337 11.0448 5.16696L11.6837 5.73403C11.9975 5.99946 12.2927 6.18848 12.5691 6.30109C12.8456 6.4137 13.1856 6.47001 13.5891 6.47001H24.0125C25.2155 6.47001 26.1271 6.80381 26.7472 7.47142C27.3035 8.06312 27.6133 8.89807 27.6765 9.97627Z" fill="#C9191E"/>
<path d="M5.67656 27.25C4.46609 27.25 3.6366 26.9036 3.18806 26.2107C2.73746 25.5261 2.6776 24.516 3.00848 23.1803L5.32709 13.8205C5.61138 12.6729 6.80027 11.7426 7.98256 11.7426H29.3898C30.5721 11.7426 31.3001 12.6729 31.0158 13.8205L28.6972 23.1803C28.3663 24.516 27.8172 25.5261 27.0499 26.2107C26.2805 26.9036 25.3615 27.25 24.293 27.25H5.67656Z" fill="#000091"/>
<path d="M38.266 24.25V8.85H47.242V11.446H41.39V15.098H46.362V17.694H41.39V24.25H38.266ZM51.0253 11.226C50.0353 11.226 49.1993 10.39 49.1993 9.4C49.1993 8.41 50.0353 7.574 51.0253 7.574C52.0153 7.574 52.8293 8.41 52.8293 9.4C52.8293 10.39 52.0153 11.226 51.0253 11.226ZM49.6173 24.25V13.162H52.4113V24.25H49.6173ZM61.0858 22.05C62.1858 22.05 63.0658 21.544 63.5938 20.774L65.7718 22.446C64.7378 23.81 63.1098 24.69 61.0858 24.69C57.2578 24.69 54.9698 21.94 54.9698 18.706C54.9698 15.472 57.2578 12.722 61.0858 12.722C63.1098 12.722 64.7378 13.602 65.7718 14.966L63.5938 16.638C63.0658 15.868 62.1858 15.362 61.0418 15.362C59.2158 15.362 57.8738 16.77 57.8738 18.706C57.8738 20.664 59.2158 22.05 61.0858 22.05ZM67.8575 24.25V7.75H70.6515V14.042C71.4215 13.294 72.4555 12.722 73.9295 12.722C76.3275 12.722 78.2415 14.372 78.2415 17.65V24.25H75.4255V17.76C75.4255 16.286 74.6115 15.362 73.2255 15.362C71.8175 15.362 71.0695 16.308 70.6515 17.012V24.25H67.8575ZM82.8222 11.226C81.8322 11.226 80.9962 10.39 80.9962 9.4C80.9962 8.41 81.8322 7.574 82.8222 7.574C83.8122 7.574 84.6262 8.41 84.6262 9.4C84.6262 10.39 83.8122 11.226 82.8222 11.226ZM81.4142 24.25V13.162H84.2082V24.25H81.4142ZM97.7667 22.446C96.7327 23.832 95.0167 24.69 92.9267 24.69C88.9887 24.69 86.7667 21.94 86.7667 18.706C86.7667 15.428 88.8347 12.722 92.4647 12.722C95.5447 12.722 97.5687 14.812 97.5687 17.716C97.5687 18.332 97.4807 18.904 97.3927 19.278H89.6267C89.8907 21.346 91.1667 22.182 92.9047 22.182C94.1147 22.182 95.1707 21.654 95.7647 20.862L97.7667 22.446ZM92.3987 15.01C90.9687 15.01 90.0227 15.802 89.7147 17.254H94.8187C94.7747 16.132 93.9607 15.01 92.3987 15.01ZM100.299 24.25V13.162H103.093V14.262C103.819 13.514 104.765 12.942 106.019 12.942C106.393 12.942 106.723 13.008 106.987 13.096V15.846C106.635 15.758 106.261 15.692 105.755 15.692C104.391 15.692 103.511 16.44 103.093 17.144V24.25H100.299ZM108.268 22.644L110.116 20.972C110.798 21.83 111.612 22.446 112.668 22.446C113.57 22.446 114.032 21.918 114.032 21.258C114.032 19.322 108.73 20.048 108.73 16.154C108.73 14.196 110.38 12.722 112.69 12.722C114.384 12.722 115.924 13.536 116.716 14.614L114.868 16.242C114.296 15.538 113.57 14.966 112.712 14.966C111.832 14.966 111.414 15.45 111.414 16.022C111.414 17.914 116.716 17.254 116.716 21.082C116.672 23.414 114.802 24.69 112.712 24.69C110.732 24.69 109.324 23.898 108.268 22.644Z" fill="#000091"/>
<rect x="126" y="8.25" width="40" height="16" rx="8" fill="#ECECFE"/>
<path d="M133.133 20.25V12.55H135.399C137.005 12.55 137.984 13.342 137.984 14.64C137.984 15.267 137.698 15.806 137.159 16.158C137.973 16.521 138.424 17.181 138.424 17.984C138.424 19.392 137.335 20.25 135.564 20.25H133.133ZM135.432 13.848H134.695V15.586H135.432C136.026 15.586 136.378 15.267 136.378 14.706C136.378 14.167 136.026 13.848 135.432 13.848ZM135.652 16.884H134.695V18.952H135.652C136.378 18.952 136.818 18.567 136.818 17.918C136.818 17.258 136.378 16.884 135.652 16.884ZM139.917 20.25V12.55H144.405V13.848H141.479V15.674H143.965V16.972H141.479V18.952H144.405V20.25H139.917ZM145.479 13.969V12.55H151.793V13.969H149.417V20.25H147.855V13.969H145.479ZM151.346 20.25L154.261 12.55H156.307L159.222 20.25H157.561L156.824 18.248H153.744L153.007 20.25H151.346ZM154.228 16.917H156.34L155.284 14.024L154.228 16.917Z" fill="#5858D3"/>
</svg>
