<svg width="24" height="25" viewBox="0 0 24 25" fill="none" xmlns="http://www.w3.org/2000/svg">
<g clip-path="url(#clip0_7435_708)">
<rect y="0.5" width="24" height="24" rx="6" fill="#6A6AF4"/>
<rect x="0.6" y="1.1" width="22.8" height="22.8" rx="5.4" stroke="white" stroke-opacity="0.2" stroke-width="1.2"/>
<path d="M12.0001 12.5C11.2667 12.5 10.639 12.2389 10.1167 11.7167C9.59453 11.1944 9.33341 10.5667 9.33341 9.83334C9.33341 9.1 9.59453 8.47223 10.1167 7.95001C10.639 7.42778 11.2667 7.16667 12.0001 7.16667C12.7334 7.16667 13.3612 7.42778 13.8834 7.95001C14.4056 8.47223 14.6667 9.1 14.6667 9.83334C14.6667 10.5667 14.4056 11.1944 13.8834 11.7167C13.3612 12.2389 12.7334 12.5 12.0001 12.5ZM6.66675 17.8333V15.9667C6.66675 15.5889 6.76397 15.2417 6.95841 14.925C7.15286 14.6083 7.41119 14.3667 7.73341 14.2C8.4223 13.8556 9.1223 13.5972 9.83341 13.425C10.5445 13.2528 11.2667 13.1667 12.0001 13.1667C12.7334 13.1667 13.4556 13.2528 14.1667 13.425C14.8779 13.5972 15.5779 13.8556 16.2667 14.2C16.589 14.3667 16.8473 14.6083 17.0417 14.925C17.2362 15.2417 17.3334 15.5889 17.3334 15.9667V17.8333H6.66675Z" fill="white" fill-opacity="0.9"/>
</g>
<defs>
<clipPath id="clip0_7435_708">
<rect width="24" height="24" fill="white" transform="translate(0 0.5)"/>
</clipPath>
</defs>
</svg>
