<svg width="37" height="37" viewBox="0 0 37 37" fill="none" xmlns="http://www.w3.org/2000/svg">
<g filter="url(#filter0_d_2462_1158)">
<path d="M8.17624 27.5C6.96578 27.5 6.13628 27.1536 5.68775 26.4607C5.23715 25.7761 5.17729 24.766 5.50817 23.4303L7.82678 14.0705C8.11106 12.9229 9.29995 11.9926 10.4822 11.9926H31.8895C33.0718 11.9926 33.7998 12.9229 33.5155 14.0705L31.1969 23.4303C30.866 24.766 30.3169 25.7761 29.5496 26.4607C28.7801 27.1536 27.8612 27.5 26.7927 27.5H8.17624Z" fill="#929292"/>
<path d="M8.17624 27.5C6.96578 27.5 6.13628 27.1536 5.68775 26.4607C5.23715 25.7761 5.17729 24.766 5.50817 23.4303L7.82678 14.0705C8.11106 12.9229 9.29995 11.9926 10.4822 11.9926H31.8895C33.0718 11.9926 33.7998 12.9229 33.5155 14.0705L31.1969 23.4303C30.866 24.766 30.3169 25.7761 29.5496 26.4607C28.7801 27.1536 27.8612 27.5 26.7927 27.5H8.17624Z" fill="url(#paint0_linear_2462_1158)" fill-opacity="0.16"/>
<path d="M8.17624 27.5C6.96578 27.5 6.13628 27.1536 5.68775 26.4607C5.23715 25.7761 5.17729 24.766 5.50817 23.4303L7.82678 14.0705C8.11106 12.9229 9.29995 11.9926 10.4822 11.9926H31.8895C33.0718 11.9926 33.7998 12.9229 33.5155 14.0705L31.1969 23.4303C30.866 24.766 30.3169 25.7761 29.5496 26.4607C28.7801 27.1536 27.8612 27.5 26.7927 27.5H8.17624Z" fill="url(#paint1_linear_2462_1158)" fill-opacity="0.07"/>
<path d="M30.1765 10.2263H10.9197C8.73248 10.2263 6.53303 11.9473 6.00711 14.0704L4.5 20.1543V8.34882C4.5 7.07794 4.79141 6.12077 5.37422 5.47729C5.96451 4.82576 6.78269 4.5 7.82877 4.5H11.0006C11.3892 4.5 11.7254 4.52815 12.0093 4.58446C12.2933 4.64076 12.5548 4.73728 12.7939 4.87402C13.033 5.00272 13.2833 5.1837 13.5448 5.41696L14.1837 5.98403C14.4975 6.24946 14.7927 6.43848 15.0691 6.55109C15.3456 6.6637 15.6856 6.72001 16.0891 6.72001H26.5125C27.7155 6.72001 28.6271 7.05381 29.2472 7.72142C29.8035 8.31312 30.1133 9.14807 30.1765 10.2263Z" fill="#929292"/>
<path d="M30.1765 10.2263H10.9197C8.73248 10.2263 6.53303 11.9473 6.00711 14.0704L4.5 20.1543V8.34882C4.5 7.07794 4.79141 6.12077 5.37422 5.47729C5.96451 4.82576 6.78269 4.5 7.82877 4.5H11.0006C11.3892 4.5 11.7254 4.52815 12.0093 4.58446C12.2933 4.64076 12.5548 4.73728 12.7939 4.87402C13.033 5.00272 13.2833 5.1837 13.5448 5.41696L14.1837 5.98403C14.4975 6.24946 14.7927 6.43848 15.0691 6.55109C15.3456 6.6637 15.6856 6.72001 16.0891 6.72001H26.5125C27.7155 6.72001 28.6271 7.05381 29.2472 7.72142C29.8035 8.31312 30.1133 9.14807 30.1765 10.2263Z" fill="url(#paint2_linear_2462_1158)" fill-opacity="0.16"/>
<path d="M30.1765 10.2263H10.9197C8.73248 10.2263 6.53303 11.9473 6.00711 14.0704L4.5 20.1543V8.34882C4.5 7.07794 4.79141 6.12077 5.37422 5.47729C5.96451 4.82576 6.78269 4.5 7.82877 4.5H11.0006C11.3892 4.5 11.7254 4.52815 12.0093 4.58446C12.2933 4.64076 12.5548 4.73728 12.7939 4.87402C13.033 5.00272 13.2833 5.1837 13.5448 5.41696L14.1837 5.98403C14.4975 6.24946 14.7927 6.43848 15.0691 6.55109C15.3456 6.6637 15.6856 6.72001 16.0891 6.72001H26.5125C27.7155 6.72001 28.6271 7.05381 29.2472 7.72142C29.8035 8.31312 30.1133 9.14807 30.1765 10.2263Z" fill="url(#paint3_linear_2462_1158)" fill-opacity="0.07"/>
</g>
<defs>
<filter id="filter0_d_2462_1158" x="0.5" y="0.5" width="36" height="36" filterUnits="userSpaceOnUse" color-interpolation-filters="sRGB">
<feFlood flood-opacity="0" result="BackgroundImageFix"/>
<feColorMatrix in="SourceAlpha" type="matrix" values="0 0 0 0 0 0 0 0 0 0 0 0 0 0 0 0 0 0 127 0" result="hardAlpha"/>
<feOffset dy="2"/>
<feGaussianBlur stdDeviation="1"/>
<feComposite in2="hardAlpha" operator="out"/>
<feColorMatrix type="matrix" values="0 0 0 0 0 0 0 0 0 0 0 0 0 0 0 0 0 0 0.06 0"/>
<feBlend mode="normal" in2="BackgroundImageFix" result="effect1_dropShadow_2462_1158"/>
<feBlend mode="normal" in="SourceGraphic" in2="effect1_dropShadow_2462_1158" result="shape"/>
</filter>
<linearGradient id="paint0_linear_2462_1158" x1="27.2573" y1="24.1362" x2="10.45" y2="-2.27523" gradientUnits="userSpaceOnUse">
<stop stop-color="white" stop-opacity="0"/>
<stop offset="1" stop-color="white"/>
</linearGradient>
<linearGradient id="paint1_linear_2462_1158" x1="19.0385" y1="16" x2="31.7678" y2="39.4819" gradientUnits="userSpaceOnUse">
<stop stop-opacity="0"/>
<stop offset="1"/>
</linearGradient>
<linearGradient id="paint2_linear_2462_1158" x1="27.2573" y1="24.1362" x2="10.45" y2="-2.27523" gradientUnits="userSpaceOnUse">
<stop stop-color="white" stop-opacity="0"/>
<stop offset="1" stop-color="white"/>
</linearGradient>
<linearGradient id="paint3_linear_2462_1158" x1="19.0385" y1="16" x2="31.7678" y2="39.4819" gradientUnits="userSpaceOnUse">
<stop stop-opacity="0"/>
<stop offset="1"/>
</linearGradient>
</defs>
</svg>
