<svg width="24" height="24" viewBox="0 0 24 24" fill="none" xmlns="http://www.w3.org/2000/svg">
<path fill-rule="evenodd" clip-rule="evenodd" d="M19 4H5C4.44772 4 4 4.44772 4 5V19C4 19.5523 4.44772 20 5 20H19C19.5523 20 20 19.5523 20 19V5C20 4.44772 19.5523 4 19 4ZM6 15.0625V16.5H15V15.0625C15 14.7917 14.9349 14.5443 14.8047 14.3203C14.6745 14.0964 14.4948 13.9167 14.2656 13.7812C13.7031 13.4479 13.1068 13.1927 12.4766 13.0156C11.8464 12.8385 11.1875 12.75 10.5 12.75C9.8125 12.75 9.15365 12.8385 8.52344 13.0156C7.89323 13.1927 7.29688 13.4479 6.73438 13.7812C6.50521 13.9167 6.32552 14.0964 6.19531 14.3203C6.0651 14.5443 6 14.7917 6 15.0625ZM16.125 15.0625V16.5H18V15.0625C18 14.7917 17.9349 14.5443 17.8047 14.3203C17.6745 14.0964 17.4948 13.9167 17.2656 13.7812C16.9219 13.5729 16.5599 13.3984 16.1797 13.2578C15.7995 13.1172 15.4062 13.0052 15 12.9219C15.3438 13.1615 15.6172 13.4688 15.8203 13.8438C16.0234 14.2188 16.125 14.625 16.125 15.0625ZM8.90625 11.3438C9.34375 11.7812 9.875 12 10.5 12C11.125 12 11.6562 11.7812 12.0938 11.3438C12.5312 10.9062 12.75 10.375 12.75 9.75C12.75 9.125 12.5312 8.59375 12.0938 8.15625C11.6562 7.71875 11.125 7.5 10.5 7.5C9.875 7.5 9.34375 7.71875 8.90625 8.15625C8.46875 8.59375 8.25 9.125 8.25 9.75C8.25 10.375 8.46875 10.9062 8.90625 11.3438ZM15.0938 11.3438C15.5312 10.9062 15.75 10.375 15.75 9.75C15.75 9.125 15.5312 8.59375 15.0938 8.15625C14.6562 7.71875 14.125 7.5 13.5 7.5C13.4167 7.5 13.3385 7.5026 13.2656 7.50781C13.1927 7.51302 13.1146 7.52604 13.0312 7.54688C13.2917 7.84896 13.4974 8.1849 13.6484 8.55469C13.7995 8.92448 13.875 9.32292 13.875 9.75C13.875 10.1771 13.7995 10.5755 13.6484 10.9453C13.4974 11.3151 13.2917 11.651 13.0312 11.9531C13.1146 11.974 13.1927 11.987 13.2656 11.9922C13.3385 11.9974 13.4167 12 13.5 12C14.125 12 14.6562 11.7812 15.0938 11.3438Z" fill="#3A3A3A"/>
<path fill-rule="evenodd" clip-rule="evenodd" d="M5 1C2.79086 1 1 2.79086 1 5V19C1 21.2091 2.79086 23 5 23H19C21.2091 23 23 21.2091 23 19V5C23 2.79086 21.2091 1 19 1H5ZM19 2.5H5C3.61929 2.5 2.5 3.61929 2.5 5V19C2.5 20.3807 3.61929 21.5 5 21.5H19C20.3807 21.5 21.5 20.3807 21.5 19V5C21.5 3.61929 20.3807 2.5 19 2.5Z" fill="#3A3A3A"/>
</svg>
