<svg width="24" height="24" viewBox="0 0 24 24" fill="none" xmlns="http://www.w3.org/2000/svg">
<path d="M20.4774 7.21795H6.19571C4.57356 7.21795 2.94235 8.49438 2.55231 10.0689L1.43457 14.581V5.82555C1.43457 4.88301 1.65069 4.17313 2.08293 3.6959C2.52071 3.2127 3.12751 2.9711 3.90333 2.9711H6.25572C6.54388 2.9711 6.79325 2.99198 7.00383 3.03374C7.21441 3.07549 7.40836 3.14708 7.58569 3.24849C7.76302 3.34394 7.94866 3.47816 8.14262 3.65116L8.61642 4.07172C8.84917 4.26858 9.06806 4.40876 9.27309 4.49228C9.47813 4.5758 9.73027 4.61755 10.0295 4.61755H17.76C18.6522 4.61755 19.3282 4.86512 19.7882 5.36025C20.2007 5.79907 20.4305 6.41831 20.4774 7.21795Z" fill="#3A3A3A"/>
<path d="M4.16126 20.0289C3.26353 20.0289 2.64834 19.772 2.31569 19.2581C1.98151 18.7504 1.93711 18.0012 2.1825 17.0106L3.90209 10.069C4.11292 9.21786 4.99466 8.5279 5.87149 8.5279H21.748C22.6249 8.5279 23.1648 9.21786 22.9539 10.069L21.2344 17.0106C20.989 18.0012 20.5817 18.7504 20.0126 19.2581C19.442 19.772 18.7605 20.0289 17.968 20.0289H4.16126Z" fill="#3A3A3A"/>
</svg>
